<mxfile host="app.diagrams.net" agent="Mozilla/5.0 (Windows NT 10.0; Win64; x64) AppleWebKit/537.36 (KHTML, like Gecko) Chrome/132.0.0.0 Safari/537.36 OPR/117.0.0.0" version="26.2.9" pages="10">
  <diagram name="PÃ¡gina-1" id="Sux87jhTsK4tGDTQHZmS">
    <mxGraphModel dx="1072" dy="463" grid="1" gridSize="10" guides="1" tooltips="1" connect="1" arrows="1" fold="1" page="1" pageScale="1" pageWidth="827" pageHeight="1169" math="0" shadow="0">
      <root>
        <mxCell id="0" />
        <mxCell id="1" parent="0" />
        <mxCell id="e2-c9Ug5EeCdYljsnoAl-2" value="&lt;span style=&quot;color: rgb(51, 51, 51); font-family: -apple-system, BlinkMacSystemFont, &amp;quot;Segoe UI&amp;quot;, Roboto, &amp;quot;Helvetica Neue&amp;quot;, Arial, &amp;quot;Noto Sans&amp;quot;, &amp;quot;Liberation Sans&amp;quot;, sans-serif, &amp;quot;Apple Color Emoji&amp;quot;, &amp;quot;Segoe UI Emoji&amp;quot;, &amp;quot;Segoe UI Symbol&amp;quot;, &amp;quot;Noto Color Emoji&amp;quot;; font-size: 14.44px; text-align: left; background-color: rgb(255, 255, 255);&quot;&gt;123,&amp;nbsp;&lt;/span&gt;&lt;span style=&quot;box-sizing: border-box; color: rgb(51, 51, 51); font-family: -apple-system, BlinkMacSystemFont, &amp;quot;Segoe UI&amp;quot;, Roboto, &amp;quot;Helvetica Neue&amp;quot;, Arial, &amp;quot;Noto Sans&amp;quot;, &amp;quot;Liberation Sans&amp;quot;, sans-serif, &amp;quot;Apple Color Emoji&amp;quot;, &amp;quot;Segoe UI Emoji&amp;quot;, &amp;quot;Segoe UI Symbol&amp;quot;, &amp;quot;Noto Color Emoji&amp;quot;; text-align: left; background-color: rgb(255, 255, 255); font-size: 0.9375rem;&quot;&gt;133,&amp;nbsp;&lt;/span&gt;&lt;span style=&quot;box-sizing: border-box; color: rgb(51, 51, 51); font-family: -apple-system, BlinkMacSystemFont, &amp;quot;Segoe UI&amp;quot;, Roboto, &amp;quot;Helvetica Neue&amp;quot;, Arial, &amp;quot;Noto Sans&amp;quot;, &amp;quot;Liberation Sans&amp;quot;, sans-serif, &amp;quot;Apple Color Emoji&amp;quot;, &amp;quot;Segoe UI Emoji&amp;quot;, &amp;quot;Segoe UI Symbol&amp;quot;, &amp;quot;Noto Color Emoji&amp;quot;; text-align: left; background-color: rgb(255, 255, 255); font-size: 0.9375rem;&quot;&gt;66,&amp;nbsp;&lt;/span&gt;&lt;span style=&quot;box-sizing: border-box; color: rgb(51, 51, 51); font-family: -apple-system, BlinkMacSystemFont, &amp;quot;Segoe UI&amp;quot;, Roboto, &amp;quot;Helvetica Neue&amp;quot;, Arial, &amp;quot;Noto Sans&amp;quot;, &amp;quot;Liberation Sans&amp;quot;, sans-serif, &amp;quot;Apple Color Emoji&amp;quot;, &amp;quot;Segoe UI Emoji&amp;quot;, &amp;quot;Segoe UI Symbol&amp;quot;, &amp;quot;Noto Color Emoji&amp;quot;; text-align: left; background-color: rgb(255, 255, 255); font-size: 0.9375rem;&quot;&gt;111,&amp;nbsp;&lt;/span&gt;&lt;span style=&quot;box-sizing: border-box; color: rgb(51, 51, 51); font-family: -apple-system, BlinkMacSystemFont, &amp;quot;Segoe UI&amp;quot;, Roboto, &amp;quot;Helvetica Neue&amp;quot;, Arial, &amp;quot;Noto Sans&amp;quot;, &amp;quot;Liberation Sans&amp;quot;, sans-serif, &amp;quot;Apple Color Emoji&amp;quot;, &amp;quot;Segoe UI Emoji&amp;quot;, &amp;quot;Segoe UI Symbol&amp;quot;, &amp;quot;Noto Color Emoji&amp;quot;; text-align: left; background-color: rgb(255, 255, 255); font-size: 0.9375rem;&quot;&gt;83,&amp;nbsp;&lt;/span&gt;&lt;span style=&quot;box-sizing: border-box; color: rgb(51, 51, 51); font-family: -apple-system, BlinkMacSystemFont, &amp;quot;Segoe UI&amp;quot;, Roboto, &amp;quot;Helvetica Neue&amp;quot;, Arial, &amp;quot;Noto Sans&amp;quot;, &amp;quot;Liberation Sans&amp;quot;, sans-serif, &amp;quot;Apple Color Emoji&amp;quot;, &amp;quot;Segoe UI Emoji&amp;quot;, &amp;quot;Segoe UI Symbol&amp;quot;, &amp;quot;Noto Color Emoji&amp;quot;; text-align: left; background-color: rgb(255, 255, 255); font-size: 0.9375rem;&quot;&gt;25,&amp;nbsp;&lt;/span&gt;&lt;span style=&quot;box-sizing: border-box; color: rgb(51, 51, 51); font-family: -apple-system, BlinkMacSystemFont, &amp;quot;Segoe UI&amp;quot;, Roboto, &amp;quot;Helvetica Neue&amp;quot;, Arial, &amp;quot;Noto Sans&amp;quot;, &amp;quot;Liberation Sans&amp;quot;, sans-serif, &amp;quot;Apple Color Emoji&amp;quot;, &amp;quot;Segoe UI Emoji&amp;quot;, &amp;quot;Segoe UI Symbol&amp;quot;, &amp;quot;Noto Color Emoji&amp;quot;; text-align: left; background-color: rgb(255, 255, 255); font-size: 0.9375rem;&quot;&gt;9,&amp;nbsp;&lt;/span&gt;&lt;span style=&quot;box-sizing: border-box; color: rgb(51, 51, 51); font-family: -apple-system, BlinkMacSystemFont, &amp;quot;Segoe UI&amp;quot;, Roboto, &amp;quot;Helvetica Neue&amp;quot;, Arial, &amp;quot;Noto Sans&amp;quot;, &amp;quot;Liberation Sans&amp;quot;, sans-serif, &amp;quot;Apple Color Emoji&amp;quot;, &amp;quot;Segoe UI Emoji&amp;quot;, &amp;quot;Segoe UI Symbol&amp;quot;, &amp;quot;Noto Color Emoji&amp;quot;; text-align: left; background-color: rgb(255, 255, 255); font-size: 0.9375rem;&quot;&gt;103,&amp;nbsp;&lt;/span&gt;&lt;span style=&quot;box-sizing: border-box; color: rgb(51, 51, 51); font-family: -apple-system, BlinkMacSystemFont, &amp;quot;Segoe UI&amp;quot;, Roboto, &amp;quot;Helvetica Neue&amp;quot;, Arial, &amp;quot;Noto Sans&amp;quot;, &amp;quot;Liberation Sans&amp;quot;, sans-serif, &amp;quot;Apple Color Emoji&amp;quot;, &amp;quot;Segoe UI Emoji&amp;quot;, &amp;quot;Segoe UI Symbol&amp;quot;, &amp;quot;Noto Color Emoji&amp;quot;; text-align: left; background-color: rgb(255, 255, 255); font-size: 0.9375rem;&quot;&gt;37,&amp;nbsp;&lt;/span&gt;&lt;span style=&quot;box-sizing: border-box; color: rgb(51, 51, 51); font-family: -apple-system, BlinkMacSystemFont, &amp;quot;Segoe UI&amp;quot;, Roboto, &amp;quot;Helvetica Neue&amp;quot;, Arial, &amp;quot;Noto Sans&amp;quot;, &amp;quot;Liberation Sans&amp;quot;, sans-serif, &amp;quot;Apple Color Emoji&amp;quot;, &amp;quot;Segoe UI Emoji&amp;quot;, &amp;quot;Segoe UI Symbol&amp;quot;, &amp;quot;Noto Color Emoji&amp;quot;; text-align: left; background-color: rgb(255, 255, 255); font-size: 0.9375rem;&quot;&gt;59,&amp;nbsp;&lt;/span&gt;&lt;span style=&quot;box-sizing: border-box; color: rgb(51, 51, 51); font-family: -apple-system, BlinkMacSystemFont, &amp;quot;Segoe UI&amp;quot;, Roboto, &amp;quot;Helvetica Neue&amp;quot;, Arial, &amp;quot;Noto Sans&amp;quot;, &amp;quot;Liberation Sans&amp;quot;, sans-serif, &amp;quot;Apple Color Emoji&amp;quot;, &amp;quot;Segoe UI Emoji&amp;quot;, &amp;quot;Segoe UI Symbol&amp;quot;, &amp;quot;Noto Color Emoji&amp;quot;; text-align: left; background-color: rgb(255, 255, 255); font-size: 0.9375rem;&quot;&gt;53,&amp;nbsp;&lt;/span&gt;&lt;span style=&quot;box-sizing: border-box; color: rgb(51, 51, 51); font-family: -apple-system, BlinkMacSystemFont, &amp;quot;Segoe UI&amp;quot;, Roboto, &amp;quot;Helvetica Neue&amp;quot;, Arial, &amp;quot;Noto Sans&amp;quot;, &amp;quot;Liberation Sans&amp;quot;, sans-serif, &amp;quot;Apple Color Emoji&amp;quot;, &amp;quot;Segoe UI Emoji&amp;quot;, &amp;quot;Segoe UI Symbol&amp;quot;, &amp;quot;Noto Color Emoji&amp;quot;; text-align: left; background-color: rgb(255, 255, 255); font-size: 0.9375rem;&quot;&gt;42&lt;/span&gt;" style="whiteSpace=wrap;html=1;" vertex="1" parent="1">
          <mxGeometry y="10" width="320" height="30" as="geometry" />
        </mxCell>
        <mxCell id="e2-c9Ug5EeCdYljsnoAl-23" style="edgeStyle=orthogonalEdgeStyle;rounded=0;orthogonalLoop=1;jettySize=auto;html=1;entryX=0.5;entryY=0;entryDx=0;entryDy=0;" edge="1" parent="1" source="e2-c9Ug5EeCdYljsnoAl-3" target="e2-c9Ug5EeCdYljsnoAl-4">
          <mxGeometry relative="1" as="geometry" />
        </mxCell>
        <mxCell id="e2-c9Ug5EeCdYljsnoAl-24" style="edgeStyle=orthogonalEdgeStyle;rounded=0;orthogonalLoop=1;jettySize=auto;html=1;entryX=0.5;entryY=0;entryDx=0;entryDy=0;" edge="1" parent="1" source="e2-c9Ug5EeCdYljsnoAl-3" target="e2-c9Ug5EeCdYljsnoAl-5">
          <mxGeometry relative="1" as="geometry" />
        </mxCell>
        <mxCell id="e2-c9Ug5EeCdYljsnoAl-3" value="123" style="ellipse;whiteSpace=wrap;html=1;aspect=fixed;" vertex="1" parent="1">
          <mxGeometry x="380" y="50" width="50" height="50" as="geometry" />
        </mxCell>
        <mxCell id="e2-c9Ug5EeCdYljsnoAl-21" style="edgeStyle=orthogonalEdgeStyle;rounded=0;orthogonalLoop=1;jettySize=auto;html=1;entryX=0.5;entryY=0;entryDx=0;entryDy=0;" edge="1" parent="1" source="e2-c9Ug5EeCdYljsnoAl-4" target="e2-c9Ug5EeCdYljsnoAl-6">
          <mxGeometry relative="1" as="geometry" />
        </mxCell>
        <mxCell id="e2-c9Ug5EeCdYljsnoAl-22" style="edgeStyle=orthogonalEdgeStyle;rounded=0;orthogonalLoop=1;jettySize=auto;html=1;" edge="1" parent="1" source="e2-c9Ug5EeCdYljsnoAl-4" target="e2-c9Ug5EeCdYljsnoAl-7">
          <mxGeometry relative="1" as="geometry" />
        </mxCell>
        <mxCell id="e2-c9Ug5EeCdYljsnoAl-4" value="133" style="ellipse;whiteSpace=wrap;html=1;aspect=fixed;" vertex="1" parent="1">
          <mxGeometry x="340" y="130" width="50" height="50" as="geometry" />
        </mxCell>
        <mxCell id="e2-c9Ug5EeCdYljsnoAl-26" style="edgeStyle=orthogonalEdgeStyle;rounded=0;orthogonalLoop=1;jettySize=auto;html=1;entryX=0.5;entryY=0;entryDx=0;entryDy=0;" edge="1" parent="1" source="e2-c9Ug5EeCdYljsnoAl-5" target="e2-c9Ug5EeCdYljsnoAl-9">
          <mxGeometry relative="1" as="geometry" />
        </mxCell>
        <mxCell id="e2-c9Ug5EeCdYljsnoAl-5" value="66" style="ellipse;whiteSpace=wrap;html=1;aspect=fixed;" vertex="1" parent="1">
          <mxGeometry x="420" y="130" width="50" height="50" as="geometry" />
        </mxCell>
        <mxCell id="e2-c9Ug5EeCdYljsnoAl-19" style="edgeStyle=orthogonalEdgeStyle;rounded=0;orthogonalLoop=1;jettySize=auto;html=1;" edge="1" parent="1" source="e2-c9Ug5EeCdYljsnoAl-6" target="e2-c9Ug5EeCdYljsnoAl-11">
          <mxGeometry relative="1" as="geometry" />
        </mxCell>
        <mxCell id="e2-c9Ug5EeCdYljsnoAl-6" value="111" style="ellipse;whiteSpace=wrap;html=1;aspect=fixed;" vertex="1" parent="1">
          <mxGeometry x="135" y="190" width="50" height="50" as="geometry" />
        </mxCell>
        <mxCell id="e2-c9Ug5EeCdYljsnoAl-29" style="edgeStyle=orthogonalEdgeStyle;rounded=0;orthogonalLoop=1;jettySize=auto;html=1;" edge="1" parent="1" source="e2-c9Ug5EeCdYljsnoAl-7" target="e2-c9Ug5EeCdYljsnoAl-12">
          <mxGeometry relative="1" as="geometry" />
        </mxCell>
        <mxCell id="e2-c9Ug5EeCdYljsnoAl-30" style="edgeStyle=orthogonalEdgeStyle;rounded=0;orthogonalLoop=1;jettySize=auto;html=1;entryX=0.5;entryY=0;entryDx=0;entryDy=0;" edge="1" parent="1" source="e2-c9Ug5EeCdYljsnoAl-7" target="e2-c9Ug5EeCdYljsnoAl-13">
          <mxGeometry relative="1" as="geometry" />
        </mxCell>
        <mxCell id="e2-c9Ug5EeCdYljsnoAl-7" value="83" style="ellipse;whiteSpace=wrap;html=1;aspect=fixed;" vertex="1" parent="1">
          <mxGeometry x="260" y="190" width="50" height="50" as="geometry" />
        </mxCell>
        <mxCell id="e2-c9Ug5EeCdYljsnoAl-31" style="edgeStyle=orthogonalEdgeStyle;rounded=0;orthogonalLoop=1;jettySize=auto;html=1;" edge="1" parent="1" source="e2-c9Ug5EeCdYljsnoAl-8" target="e2-c9Ug5EeCdYljsnoAl-14">
          <mxGeometry relative="1" as="geometry" />
        </mxCell>
        <mxCell id="e2-c9Ug5EeCdYljsnoAl-8" value="25" style="ellipse;whiteSpace=wrap;html=1;aspect=fixed;" vertex="1" parent="1">
          <mxGeometry x="490" y="190" width="50" height="50" as="geometry" />
        </mxCell>
        <mxCell id="e2-c9Ug5EeCdYljsnoAl-9" value="9" style="ellipse;whiteSpace=wrap;html=1;aspect=fixed;" vertex="1" parent="1">
          <mxGeometry x="570" y="190" width="50" height="50" as="geometry" />
        </mxCell>
        <mxCell id="e2-c9Ug5EeCdYljsnoAl-10" value="103" style="ellipse;whiteSpace=wrap;html=1;aspect=fixed;" vertex="1" parent="1">
          <mxGeometry x="100" y="260" width="50" height="50" as="geometry" />
        </mxCell>
        <mxCell id="e2-c9Ug5EeCdYljsnoAl-11" value="37" style="ellipse;whiteSpace=wrap;html=1;aspect=fixed;" vertex="1" parent="1">
          <mxGeometry x="170" y="260" width="50" height="50" as="geometry" />
        </mxCell>
        <mxCell id="e2-c9Ug5EeCdYljsnoAl-12" value="59" style="ellipse;whiteSpace=wrap;html=1;aspect=fixed;" vertex="1" parent="1">
          <mxGeometry x="230" y="260" width="50" height="50" as="geometry" />
        </mxCell>
        <mxCell id="e2-c9Ug5EeCdYljsnoAl-13" value="53" style="ellipse;whiteSpace=wrap;html=1;aspect=fixed;" vertex="1" parent="1">
          <mxGeometry x="290" y="260" width="50" height="50" as="geometry" />
        </mxCell>
        <mxCell id="e2-c9Ug5EeCdYljsnoAl-14" value="42" style="ellipse;whiteSpace=wrap;html=1;aspect=fixed;" vertex="1" parent="1">
          <mxGeometry x="430" y="260" width="50" height="50" as="geometry" />
        </mxCell>
        <mxCell id="e2-c9Ug5EeCdYljsnoAl-20" style="edgeStyle=orthogonalEdgeStyle;rounded=0;orthogonalLoop=1;jettySize=auto;html=1;entryX=0.38;entryY=0.1;entryDx=0;entryDy=0;entryPerimeter=0;" edge="1" parent="1" source="e2-c9Ug5EeCdYljsnoAl-6" target="e2-c9Ug5EeCdYljsnoAl-10">
          <mxGeometry relative="1" as="geometry" />
        </mxCell>
        <mxCell id="e2-c9Ug5EeCdYljsnoAl-28" style="edgeStyle=orthogonalEdgeStyle;rounded=0;orthogonalLoop=1;jettySize=auto;html=1;entryX=0.64;entryY=-0.04;entryDx=0;entryDy=0;entryPerimeter=0;" edge="1" parent="1" source="e2-c9Ug5EeCdYljsnoAl-5" target="e2-c9Ug5EeCdYljsnoAl-8">
          <mxGeometry relative="1" as="geometry" />
        </mxCell>
      </root>
    </mxGraphModel>
  </diagram>
  <diagram name="PÃ¡gina-2" id="WHECDFCfo5aAWnZeq4Yu">
    <mxGraphModel dx="833" dy="463" grid="1" gridSize="10" guides="1" tooltips="1" connect="1" arrows="1" fold="1" page="1" pageScale="1" pageWidth="827" pageHeight="1169" math="0" shadow="0">
      <root>
        <mxCell id="Z7tlxgZZ3UoulXN9OVFf-0" />
        <mxCell id="Z7tlxgZZ3UoulXN9OVFf-1" parent="Z7tlxgZZ3UoulXN9OVFf-0" />
        <mxCell id="Z7tlxgZZ3UoulXN9OVFf-3" style="edgeStyle=orthogonalEdgeStyle;rounded=0;orthogonalLoop=1;jettySize=auto;html=1;entryX=0.5;entryY=0;entryDx=0;entryDy=0;" edge="1" parent="Z7tlxgZZ3UoulXN9OVFf-1" source="Z7tlxgZZ3UoulXN9OVFf-5" target="Z7tlxgZZ3UoulXN9OVFf-8">
          <mxGeometry relative="1" as="geometry" />
        </mxCell>
        <mxCell id="Z7tlxgZZ3UoulXN9OVFf-4" style="edgeStyle=orthogonalEdgeStyle;rounded=0;orthogonalLoop=1;jettySize=auto;html=1;entryX=0.5;entryY=0;entryDx=0;entryDy=0;" edge="1" parent="Z7tlxgZZ3UoulXN9OVFf-1" source="Z7tlxgZZ3UoulXN9OVFf-5" target="Z7tlxgZZ3UoulXN9OVFf-10">
          <mxGeometry relative="1" as="geometry" />
        </mxCell>
        <mxCell id="Z7tlxgZZ3UoulXN9OVFf-5" value="123" style="ellipse;whiteSpace=wrap;html=1;aspect=fixed;" vertex="1" parent="Z7tlxgZZ3UoulXN9OVFf-1">
          <mxGeometry x="380" y="50" width="50" height="50" as="geometry" />
        </mxCell>
        <mxCell id="Z7tlxgZZ3UoulXN9OVFf-6" style="edgeStyle=orthogonalEdgeStyle;rounded=0;orthogonalLoop=1;jettySize=auto;html=1;entryX=0.5;entryY=0;entryDx=0;entryDy=0;" edge="1" parent="Z7tlxgZZ3UoulXN9OVFf-1" source="Z7tlxgZZ3UoulXN9OVFf-8" target="Z7tlxgZZ3UoulXN9OVFf-12">
          <mxGeometry relative="1" as="geometry" />
        </mxCell>
        <mxCell id="Z7tlxgZZ3UoulXN9OVFf-7" style="edgeStyle=orthogonalEdgeStyle;rounded=0;orthogonalLoop=1;jettySize=auto;html=1;" edge="1" parent="Z7tlxgZZ3UoulXN9OVFf-1" source="Z7tlxgZZ3UoulXN9OVFf-8" target="Z7tlxgZZ3UoulXN9OVFf-15">
          <mxGeometry relative="1" as="geometry" />
        </mxCell>
        <mxCell id="Z7tlxgZZ3UoulXN9OVFf-8" value="133" style="ellipse;whiteSpace=wrap;html=1;aspect=fixed;" vertex="1" parent="Z7tlxgZZ3UoulXN9OVFf-1">
          <mxGeometry x="340" y="130" width="50" height="50" as="geometry" />
        </mxCell>
        <mxCell id="Z7tlxgZZ3UoulXN9OVFf-9" style="edgeStyle=orthogonalEdgeStyle;rounded=0;orthogonalLoop=1;jettySize=auto;html=1;entryX=0.5;entryY=0;entryDx=0;entryDy=0;" edge="1" parent="Z7tlxgZZ3UoulXN9OVFf-1" source="Z7tlxgZZ3UoulXN9OVFf-10" target="Z7tlxgZZ3UoulXN9OVFf-18">
          <mxGeometry relative="1" as="geometry" />
        </mxCell>
        <mxCell id="Z7tlxgZZ3UoulXN9OVFf-10" value="66" style="ellipse;whiteSpace=wrap;html=1;aspect=fixed;" vertex="1" parent="Z7tlxgZZ3UoulXN9OVFf-1">
          <mxGeometry x="420" y="130" width="50" height="50" as="geometry" />
        </mxCell>
        <mxCell id="Z7tlxgZZ3UoulXN9OVFf-11" style="edgeStyle=orthogonalEdgeStyle;rounded=0;orthogonalLoop=1;jettySize=auto;html=1;" edge="1" parent="Z7tlxgZZ3UoulXN9OVFf-1" source="Z7tlxgZZ3UoulXN9OVFf-12" target="Z7tlxgZZ3UoulXN9OVFf-20">
          <mxGeometry relative="1" as="geometry" />
        </mxCell>
        <mxCell id="Z7tlxgZZ3UoulXN9OVFf-12" value="111" style="ellipse;whiteSpace=wrap;html=1;aspect=fixed;" vertex="1" parent="Z7tlxgZZ3UoulXN9OVFf-1">
          <mxGeometry x="135" y="190" width="50" height="50" as="geometry" />
        </mxCell>
        <mxCell id="Z7tlxgZZ3UoulXN9OVFf-13" style="edgeStyle=orthogonalEdgeStyle;rounded=0;orthogonalLoop=1;jettySize=auto;html=1;" edge="1" parent="Z7tlxgZZ3UoulXN9OVFf-1" source="Z7tlxgZZ3UoulXN9OVFf-15" target="Z7tlxgZZ3UoulXN9OVFf-21">
          <mxGeometry relative="1" as="geometry" />
        </mxCell>
        <mxCell id="Z7tlxgZZ3UoulXN9OVFf-14" style="edgeStyle=orthogonalEdgeStyle;rounded=0;orthogonalLoop=1;jettySize=auto;html=1;entryX=0.5;entryY=0;entryDx=0;entryDy=0;" edge="1" parent="Z7tlxgZZ3UoulXN9OVFf-1" source="Z7tlxgZZ3UoulXN9OVFf-15" target="Z7tlxgZZ3UoulXN9OVFf-22">
          <mxGeometry relative="1" as="geometry" />
        </mxCell>
        <mxCell id="Z7tlxgZZ3UoulXN9OVFf-15" value="83" style="ellipse;whiteSpace=wrap;html=1;aspect=fixed;" vertex="1" parent="Z7tlxgZZ3UoulXN9OVFf-1">
          <mxGeometry x="260" y="190" width="50" height="50" as="geometry" />
        </mxCell>
        <mxCell id="Z7tlxgZZ3UoulXN9OVFf-16" style="edgeStyle=orthogonalEdgeStyle;rounded=0;orthogonalLoop=1;jettySize=auto;html=1;" edge="1" parent="Z7tlxgZZ3UoulXN9OVFf-1" source="Z7tlxgZZ3UoulXN9OVFf-17" target="Z7tlxgZZ3UoulXN9OVFf-23">
          <mxGeometry relative="1" as="geometry" />
        </mxCell>
        <mxCell id="Z7tlxgZZ3UoulXN9OVFf-17" value="25" style="ellipse;whiteSpace=wrap;html=1;aspect=fixed;" vertex="1" parent="Z7tlxgZZ3UoulXN9OVFf-1">
          <mxGeometry x="490" y="190" width="50" height="50" as="geometry" />
        </mxCell>
        <mxCell id="Z7tlxgZZ3UoulXN9OVFf-18" value="9" style="ellipse;whiteSpace=wrap;html=1;aspect=fixed;" vertex="1" parent="Z7tlxgZZ3UoulXN9OVFf-1">
          <mxGeometry x="570" y="190" width="50" height="50" as="geometry" />
        </mxCell>
        <mxCell id="Z7tlxgZZ3UoulXN9OVFf-19" value="103" style="ellipse;whiteSpace=wrap;html=1;aspect=fixed;" vertex="1" parent="Z7tlxgZZ3UoulXN9OVFf-1">
          <mxGeometry x="100" y="260" width="50" height="50" as="geometry" />
        </mxCell>
        <mxCell id="Z7tlxgZZ3UoulXN9OVFf-20" value="37" style="ellipse;whiteSpace=wrap;html=1;aspect=fixed;" vertex="1" parent="Z7tlxgZZ3UoulXN9OVFf-1">
          <mxGeometry x="170" y="260" width="50" height="50" as="geometry" />
        </mxCell>
        <mxCell id="Z7tlxgZZ3UoulXN9OVFf-21" value="59" style="ellipse;whiteSpace=wrap;html=1;aspect=fixed;" vertex="1" parent="Z7tlxgZZ3UoulXN9OVFf-1">
          <mxGeometry x="230" y="260" width="50" height="50" as="geometry" />
        </mxCell>
        <mxCell id="Z7tlxgZZ3UoulXN9OVFf-22" value="53" style="ellipse;whiteSpace=wrap;html=1;aspect=fixed;" vertex="1" parent="Z7tlxgZZ3UoulXN9OVFf-1">
          <mxGeometry x="290" y="260" width="50" height="50" as="geometry" />
        </mxCell>
        <mxCell id="Z7tlxgZZ3UoulXN9OVFf-23" value="42" style="ellipse;whiteSpace=wrap;html=1;aspect=fixed;" vertex="1" parent="Z7tlxgZZ3UoulXN9OVFf-1">
          <mxGeometry x="430" y="260" width="50" height="50" as="geometry" />
        </mxCell>
        <mxCell id="Z7tlxgZZ3UoulXN9OVFf-24" style="edgeStyle=orthogonalEdgeStyle;rounded=0;orthogonalLoop=1;jettySize=auto;html=1;entryX=0.38;entryY=0.1;entryDx=0;entryDy=0;entryPerimeter=0;" edge="1" parent="Z7tlxgZZ3UoulXN9OVFf-1" source="Z7tlxgZZ3UoulXN9OVFf-12" target="Z7tlxgZZ3UoulXN9OVFf-19">
          <mxGeometry relative="1" as="geometry" />
        </mxCell>
        <mxCell id="Z7tlxgZZ3UoulXN9OVFf-25" style="edgeStyle=orthogonalEdgeStyle;rounded=0;orthogonalLoop=1;jettySize=auto;html=1;entryX=0.64;entryY=-0.04;entryDx=0;entryDy=0;entryPerimeter=0;" edge="1" parent="Z7tlxgZZ3UoulXN9OVFf-1" source="Z7tlxgZZ3UoulXN9OVFf-10" target="Z7tlxgZZ3UoulXN9OVFf-17">
          <mxGeometry relative="1" as="geometry" />
        </mxCell>
        <mxCell id="m1owPm2D8jjyArXjNf2v-0" value="42 Ã© maior que 25, entÃ£o mantem." style="text;html=1;align=center;verticalAlign=middle;resizable=0;points=[];autosize=1;strokeColor=none;fillColor=none;" vertex="1" parent="Z7tlxgZZ3UoulXN9OVFf-1">
          <mxGeometry x="380" y="310" width="210" height="30" as="geometry" />
        </mxCell>
      </root>
    </mxGraphModel>
  </diagram>
  <diagram name="PÃ¡gina-3" id="uOGt8j62dZedtaVCtGWT">
    <mxGraphModel dx="833" dy="463" grid="1" gridSize="10" guides="1" tooltips="1" connect="1" arrows="1" fold="1" page="1" pageScale="1" pageWidth="827" pageHeight="1169" math="0" shadow="0">
      <root>
        <mxCell id="PrDgphoF4jMJjprMdPM--0" />
        <mxCell id="PrDgphoF4jMJjprMdPM--1" parent="PrDgphoF4jMJjprMdPM--0" />
        <mxCell id="PrDgphoF4jMJjprMdPM--3" style="edgeStyle=orthogonalEdgeStyle;rounded=0;orthogonalLoop=1;jettySize=auto;html=1;entryX=0.5;entryY=0;entryDx=0;entryDy=0;" edge="1" parent="PrDgphoF4jMJjprMdPM--1" source="PrDgphoF4jMJjprMdPM--5" target="PrDgphoF4jMJjprMdPM--8">
          <mxGeometry relative="1" as="geometry" />
        </mxCell>
        <mxCell id="PrDgphoF4jMJjprMdPM--4" style="edgeStyle=orthogonalEdgeStyle;rounded=0;orthogonalLoop=1;jettySize=auto;html=1;entryX=0.5;entryY=0;entryDx=0;entryDy=0;" edge="1" parent="PrDgphoF4jMJjprMdPM--1" source="PrDgphoF4jMJjprMdPM--5" target="PrDgphoF4jMJjprMdPM--10">
          <mxGeometry relative="1" as="geometry" />
        </mxCell>
        <mxCell id="PrDgphoF4jMJjprMdPM--5" value="123" style="ellipse;whiteSpace=wrap;html=1;aspect=fixed;" vertex="1" parent="PrDgphoF4jMJjprMdPM--1">
          <mxGeometry x="380" y="50" width="50" height="50" as="geometry" />
        </mxCell>
        <mxCell id="PrDgphoF4jMJjprMdPM--6" style="edgeStyle=orthogonalEdgeStyle;rounded=0;orthogonalLoop=1;jettySize=auto;html=1;entryX=0.5;entryY=0;entryDx=0;entryDy=0;" edge="1" parent="PrDgphoF4jMJjprMdPM--1" source="PrDgphoF4jMJjprMdPM--8" target="PrDgphoF4jMJjprMdPM--12">
          <mxGeometry relative="1" as="geometry" />
        </mxCell>
        <mxCell id="PrDgphoF4jMJjprMdPM--7" style="edgeStyle=orthogonalEdgeStyle;rounded=0;orthogonalLoop=1;jettySize=auto;html=1;" edge="1" parent="PrDgphoF4jMJjprMdPM--1" source="PrDgphoF4jMJjprMdPM--8" target="PrDgphoF4jMJjprMdPM--15">
          <mxGeometry relative="1" as="geometry" />
        </mxCell>
        <mxCell id="PrDgphoF4jMJjprMdPM--8" value="133" style="ellipse;whiteSpace=wrap;html=1;aspect=fixed;" vertex="1" parent="PrDgphoF4jMJjprMdPM--1">
          <mxGeometry x="340" y="130" width="50" height="50" as="geometry" />
        </mxCell>
        <mxCell id="PrDgphoF4jMJjprMdPM--9" style="edgeStyle=orthogonalEdgeStyle;rounded=0;orthogonalLoop=1;jettySize=auto;html=1;entryX=0.5;entryY=0;entryDx=0;entryDy=0;" edge="1" parent="PrDgphoF4jMJjprMdPM--1" source="PrDgphoF4jMJjprMdPM--10" target="PrDgphoF4jMJjprMdPM--18">
          <mxGeometry relative="1" as="geometry" />
        </mxCell>
        <mxCell id="PrDgphoF4jMJjprMdPM--10" value="66" style="ellipse;whiteSpace=wrap;html=1;aspect=fixed;" vertex="1" parent="PrDgphoF4jMJjprMdPM--1">
          <mxGeometry x="420" y="130" width="50" height="50" as="geometry" />
        </mxCell>
        <mxCell id="PrDgphoF4jMJjprMdPM--11" style="edgeStyle=orthogonalEdgeStyle;rounded=0;orthogonalLoop=1;jettySize=auto;html=1;" edge="1" parent="PrDgphoF4jMJjprMdPM--1" source="PrDgphoF4jMJjprMdPM--12" target="PrDgphoF4jMJjprMdPM--20">
          <mxGeometry relative="1" as="geometry" />
        </mxCell>
        <mxCell id="PrDgphoF4jMJjprMdPM--12" value="111" style="ellipse;whiteSpace=wrap;html=1;aspect=fixed;" vertex="1" parent="PrDgphoF4jMJjprMdPM--1">
          <mxGeometry x="135" y="190" width="50" height="50" as="geometry" />
        </mxCell>
        <mxCell id="PrDgphoF4jMJjprMdPM--13" style="edgeStyle=orthogonalEdgeStyle;rounded=0;orthogonalLoop=1;jettySize=auto;html=1;" edge="1" parent="PrDgphoF4jMJjprMdPM--1" source="PrDgphoF4jMJjprMdPM--15" target="PrDgphoF4jMJjprMdPM--21">
          <mxGeometry relative="1" as="geometry" />
        </mxCell>
        <mxCell id="PrDgphoF4jMJjprMdPM--14" style="edgeStyle=orthogonalEdgeStyle;rounded=0;orthogonalLoop=1;jettySize=auto;html=1;entryX=0.5;entryY=0;entryDx=0;entryDy=0;" edge="1" parent="PrDgphoF4jMJjprMdPM--1" source="PrDgphoF4jMJjprMdPM--15" target="PrDgphoF4jMJjprMdPM--22">
          <mxGeometry relative="1" as="geometry" />
        </mxCell>
        <mxCell id="PrDgphoF4jMJjprMdPM--15" value="53" style="ellipse;whiteSpace=wrap;html=1;aspect=fixed;fillColor=#dae8fc;strokeColor=#6c8ebf;" vertex="1" parent="PrDgphoF4jMJjprMdPM--1">
          <mxGeometry x="260" y="190" width="50" height="50" as="geometry" />
        </mxCell>
        <mxCell id="PrDgphoF4jMJjprMdPM--16" style="edgeStyle=orthogonalEdgeStyle;rounded=0;orthogonalLoop=1;jettySize=auto;html=1;" edge="1" parent="PrDgphoF4jMJjprMdPM--1" source="PrDgphoF4jMJjprMdPM--17" target="PrDgphoF4jMJjprMdPM--23">
          <mxGeometry relative="1" as="geometry" />
        </mxCell>
        <mxCell id="PrDgphoF4jMJjprMdPM--17" value="25" style="ellipse;whiteSpace=wrap;html=1;aspect=fixed;" vertex="1" parent="PrDgphoF4jMJjprMdPM--1">
          <mxGeometry x="490" y="190" width="50" height="50" as="geometry" />
        </mxCell>
        <mxCell id="PrDgphoF4jMJjprMdPM--18" value="9" style="ellipse;whiteSpace=wrap;html=1;aspect=fixed;" vertex="1" parent="PrDgphoF4jMJjprMdPM--1">
          <mxGeometry x="570" y="190" width="50" height="50" as="geometry" />
        </mxCell>
        <mxCell id="PrDgphoF4jMJjprMdPM--19" value="103" style="ellipse;whiteSpace=wrap;html=1;aspect=fixed;" vertex="1" parent="PrDgphoF4jMJjprMdPM--1">
          <mxGeometry x="100" y="260" width="50" height="50" as="geometry" />
        </mxCell>
        <mxCell id="PrDgphoF4jMJjprMdPM--20" value="37" style="ellipse;whiteSpace=wrap;html=1;aspect=fixed;" vertex="1" parent="PrDgphoF4jMJjprMdPM--1">
          <mxGeometry x="170" y="260" width="50" height="50" as="geometry" />
        </mxCell>
        <mxCell id="PrDgphoF4jMJjprMdPM--21" value="59" style="ellipse;whiteSpace=wrap;html=1;aspect=fixed;" vertex="1" parent="PrDgphoF4jMJjprMdPM--1">
          <mxGeometry x="230" y="260" width="50" height="50" as="geometry" />
        </mxCell>
        <mxCell id="PrDgphoF4jMJjprMdPM--22" value="83" style="ellipse;whiteSpace=wrap;html=1;aspect=fixed;fillColor=#dae8fc;strokeColor=#6c8ebf;" vertex="1" parent="PrDgphoF4jMJjprMdPM--1">
          <mxGeometry x="290" y="260" width="50" height="50" as="geometry" />
        </mxCell>
        <mxCell id="PrDgphoF4jMJjprMdPM--23" value="42" style="ellipse;whiteSpace=wrap;html=1;aspect=fixed;" vertex="1" parent="PrDgphoF4jMJjprMdPM--1">
          <mxGeometry x="430" y="260" width="50" height="50" as="geometry" />
        </mxCell>
        <mxCell id="PrDgphoF4jMJjprMdPM--24" style="edgeStyle=orthogonalEdgeStyle;rounded=0;orthogonalLoop=1;jettySize=auto;html=1;entryX=0.38;entryY=0.1;entryDx=0;entryDy=0;entryPerimeter=0;" edge="1" parent="PrDgphoF4jMJjprMdPM--1" source="PrDgphoF4jMJjprMdPM--12" target="PrDgphoF4jMJjprMdPM--19">
          <mxGeometry relative="1" as="geometry" />
        </mxCell>
        <mxCell id="PrDgphoF4jMJjprMdPM--25" style="edgeStyle=orthogonalEdgeStyle;rounded=0;orthogonalLoop=1;jettySize=auto;html=1;entryX=0.64;entryY=-0.04;entryDx=0;entryDy=0;entryPerimeter=0;" edge="1" parent="PrDgphoF4jMJjprMdPM--1" source="PrDgphoF4jMJjprMdPM--10" target="PrDgphoF4jMJjprMdPM--17">
          <mxGeometry relative="1" as="geometry" />
        </mxCell>
      </root>
    </mxGraphModel>
  </diagram>
  <diagram name="PÃ¡gina-4" id="_rQnKC-vp5heBVXzLYxA">
    <mxGraphModel dx="833" dy="463" grid="1" gridSize="10" guides="1" tooltips="1" connect="1" arrows="1" fold="1" page="1" pageScale="1" pageWidth="827" pageHeight="1169" math="0" shadow="0">
      <root>
        <mxCell id="3YhovucTs28EISoAI0Cd-0" />
        <mxCell id="3YhovucTs28EISoAI0Cd-1" parent="3YhovucTs28EISoAI0Cd-0" />
        <mxCell id="3YhovucTs28EISoAI0Cd-3" style="edgeStyle=orthogonalEdgeStyle;rounded=0;orthogonalLoop=1;jettySize=auto;html=1;entryX=0.5;entryY=0;entryDx=0;entryDy=0;" edge="1" parent="3YhovucTs28EISoAI0Cd-1" source="3YhovucTs28EISoAI0Cd-5" target="3YhovucTs28EISoAI0Cd-8">
          <mxGeometry relative="1" as="geometry" />
        </mxCell>
        <mxCell id="3YhovucTs28EISoAI0Cd-4" style="edgeStyle=orthogonalEdgeStyle;rounded=0;orthogonalLoop=1;jettySize=auto;html=1;entryX=0.5;entryY=0;entryDx=0;entryDy=0;" edge="1" parent="3YhovucTs28EISoAI0Cd-1" source="3YhovucTs28EISoAI0Cd-5" target="3YhovucTs28EISoAI0Cd-10">
          <mxGeometry relative="1" as="geometry" />
        </mxCell>
        <mxCell id="3YhovucTs28EISoAI0Cd-5" value="123" style="ellipse;whiteSpace=wrap;html=1;aspect=fixed;" vertex="1" parent="3YhovucTs28EISoAI0Cd-1">
          <mxGeometry x="380" y="50" width="50" height="50" as="geometry" />
        </mxCell>
        <mxCell id="3YhovucTs28EISoAI0Cd-6" style="edgeStyle=orthogonalEdgeStyle;rounded=0;orthogonalLoop=1;jettySize=auto;html=1;entryX=0.5;entryY=0;entryDx=0;entryDy=0;" edge="1" parent="3YhovucTs28EISoAI0Cd-1" source="3YhovucTs28EISoAI0Cd-8" target="3YhovucTs28EISoAI0Cd-12">
          <mxGeometry relative="1" as="geometry" />
        </mxCell>
        <mxCell id="3YhovucTs28EISoAI0Cd-7" style="edgeStyle=orthogonalEdgeStyle;rounded=0;orthogonalLoop=1;jettySize=auto;html=1;" edge="1" parent="3YhovucTs28EISoAI0Cd-1" source="3YhovucTs28EISoAI0Cd-8" target="3YhovucTs28EISoAI0Cd-15">
          <mxGeometry relative="1" as="geometry" />
        </mxCell>
        <mxCell id="3YhovucTs28EISoAI0Cd-8" value="133" style="ellipse;whiteSpace=wrap;html=1;aspect=fixed;" vertex="1" parent="3YhovucTs28EISoAI0Cd-1">
          <mxGeometry x="340" y="130" width="50" height="50" as="geometry" />
        </mxCell>
        <mxCell id="3YhovucTs28EISoAI0Cd-9" style="edgeStyle=orthogonalEdgeStyle;rounded=0;orthogonalLoop=1;jettySize=auto;html=1;entryX=0.5;entryY=0;entryDx=0;entryDy=0;" edge="1" parent="3YhovucTs28EISoAI0Cd-1" source="3YhovucTs28EISoAI0Cd-10" target="3YhovucTs28EISoAI0Cd-18">
          <mxGeometry relative="1" as="geometry" />
        </mxCell>
        <mxCell id="3YhovucTs28EISoAI0Cd-10" value="66" style="ellipse;whiteSpace=wrap;html=1;aspect=fixed;" vertex="1" parent="3YhovucTs28EISoAI0Cd-1">
          <mxGeometry x="420" y="130" width="50" height="50" as="geometry" />
        </mxCell>
        <mxCell id="3YhovucTs28EISoAI0Cd-11" style="edgeStyle=orthogonalEdgeStyle;rounded=0;orthogonalLoop=1;jettySize=auto;html=1;" edge="1" parent="3YhovucTs28EISoAI0Cd-1" source="3YhovucTs28EISoAI0Cd-12" target="3YhovucTs28EISoAI0Cd-20">
          <mxGeometry relative="1" as="geometry" />
        </mxCell>
        <mxCell id="3YhovucTs28EISoAI0Cd-12" value="37" style="ellipse;whiteSpace=wrap;html=1;aspect=fixed;fillColor=#dae8fc;strokeColor=#6c8ebf;" vertex="1" parent="3YhovucTs28EISoAI0Cd-1">
          <mxGeometry x="135" y="190" width="50" height="50" as="geometry" />
        </mxCell>
        <mxCell id="3YhovucTs28EISoAI0Cd-13" style="edgeStyle=orthogonalEdgeStyle;rounded=0;orthogonalLoop=1;jettySize=auto;html=1;" edge="1" parent="3YhovucTs28EISoAI0Cd-1" source="3YhovucTs28EISoAI0Cd-15" target="3YhovucTs28EISoAI0Cd-21">
          <mxGeometry relative="1" as="geometry" />
        </mxCell>
        <mxCell id="3YhovucTs28EISoAI0Cd-14" style="edgeStyle=orthogonalEdgeStyle;rounded=0;orthogonalLoop=1;jettySize=auto;html=1;entryX=0.5;entryY=0;entryDx=0;entryDy=0;" edge="1" parent="3YhovucTs28EISoAI0Cd-1" source="3YhovucTs28EISoAI0Cd-15" target="3YhovucTs28EISoAI0Cd-22">
          <mxGeometry relative="1" as="geometry" />
        </mxCell>
        <mxCell id="3YhovucTs28EISoAI0Cd-15" value="53" style="ellipse;whiteSpace=wrap;html=1;aspect=fixed;" vertex="1" parent="3YhovucTs28EISoAI0Cd-1">
          <mxGeometry x="260" y="190" width="50" height="50" as="geometry" />
        </mxCell>
        <mxCell id="3YhovucTs28EISoAI0Cd-16" style="edgeStyle=orthogonalEdgeStyle;rounded=0;orthogonalLoop=1;jettySize=auto;html=1;" edge="1" parent="3YhovucTs28EISoAI0Cd-1" source="3YhovucTs28EISoAI0Cd-17" target="3YhovucTs28EISoAI0Cd-23">
          <mxGeometry relative="1" as="geometry" />
        </mxCell>
        <mxCell id="3YhovucTs28EISoAI0Cd-17" value="25" style="ellipse;whiteSpace=wrap;html=1;aspect=fixed;" vertex="1" parent="3YhovucTs28EISoAI0Cd-1">
          <mxGeometry x="490" y="190" width="50" height="50" as="geometry" />
        </mxCell>
        <mxCell id="3YhovucTs28EISoAI0Cd-18" value="9" style="ellipse;whiteSpace=wrap;html=1;aspect=fixed;" vertex="1" parent="3YhovucTs28EISoAI0Cd-1">
          <mxGeometry x="570" y="190" width="50" height="50" as="geometry" />
        </mxCell>
        <mxCell id="3YhovucTs28EISoAI0Cd-19" value="103" style="ellipse;whiteSpace=wrap;html=1;aspect=fixed;" vertex="1" parent="3YhovucTs28EISoAI0Cd-1">
          <mxGeometry x="100" y="260" width="50" height="50" as="geometry" />
        </mxCell>
        <mxCell id="3YhovucTs28EISoAI0Cd-20" value="111" style="ellipse;whiteSpace=wrap;html=1;aspect=fixed;fillColor=#dae8fc;strokeColor=#6c8ebf;" vertex="1" parent="3YhovucTs28EISoAI0Cd-1">
          <mxGeometry x="170" y="260" width="50" height="50" as="geometry" />
        </mxCell>
        <mxCell id="3YhovucTs28EISoAI0Cd-21" value="59" style="ellipse;whiteSpace=wrap;html=1;aspect=fixed;" vertex="1" parent="3YhovucTs28EISoAI0Cd-1">
          <mxGeometry x="230" y="260" width="50" height="50" as="geometry" />
        </mxCell>
        <mxCell id="3YhovucTs28EISoAI0Cd-22" value="83" style="ellipse;whiteSpace=wrap;html=1;aspect=fixed;" vertex="1" parent="3YhovucTs28EISoAI0Cd-1">
          <mxGeometry x="290" y="260" width="50" height="50" as="geometry" />
        </mxCell>
        <mxCell id="3YhovucTs28EISoAI0Cd-23" value="42" style="ellipse;whiteSpace=wrap;html=1;aspect=fixed;" vertex="1" parent="3YhovucTs28EISoAI0Cd-1">
          <mxGeometry x="430" y="260" width="50" height="50" as="geometry" />
        </mxCell>
        <mxCell id="3YhovucTs28EISoAI0Cd-24" style="edgeStyle=orthogonalEdgeStyle;rounded=0;orthogonalLoop=1;jettySize=auto;html=1;entryX=0.38;entryY=0.1;entryDx=0;entryDy=0;entryPerimeter=0;" edge="1" parent="3YhovucTs28EISoAI0Cd-1" source="3YhovucTs28EISoAI0Cd-12" target="3YhovucTs28EISoAI0Cd-19">
          <mxGeometry relative="1" as="geometry" />
        </mxCell>
        <mxCell id="3YhovucTs28EISoAI0Cd-25" style="edgeStyle=orthogonalEdgeStyle;rounded=0;orthogonalLoop=1;jettySize=auto;html=1;entryX=0.64;entryY=-0.04;entryDx=0;entryDy=0;entryPerimeter=0;" edge="1" parent="3YhovucTs28EISoAI0Cd-1" source="3YhovucTs28EISoAI0Cd-10" target="3YhovucTs28EISoAI0Cd-17">
          <mxGeometry relative="1" as="geometry" />
        </mxCell>
      </root>
    </mxGraphModel>
  </diagram>
  <diagram name="PÃ¡gina-5" id="bj4gqON5oSEaCE1XrNSA">
    <mxGraphModel dx="833" dy="463" grid="1" gridSize="10" guides="1" tooltips="1" connect="1" arrows="1" fold="1" page="1" pageScale="1" pageWidth="827" pageHeight="1169" math="0" shadow="0">
      <root>
        <mxCell id="-lBjVlE2T4ovlDLPQF37-0" />
        <mxCell id="-lBjVlE2T4ovlDLPQF37-1" parent="-lBjVlE2T4ovlDLPQF37-0" />
        <mxCell id="-lBjVlE2T4ovlDLPQF37-3" style="edgeStyle=orthogonalEdgeStyle;rounded=0;orthogonalLoop=1;jettySize=auto;html=1;entryX=0.5;entryY=0;entryDx=0;entryDy=0;" edge="1" parent="-lBjVlE2T4ovlDLPQF37-1" source="-lBjVlE2T4ovlDLPQF37-5" target="-lBjVlE2T4ovlDLPQF37-8">
          <mxGeometry relative="1" as="geometry" />
        </mxCell>
        <mxCell id="-lBjVlE2T4ovlDLPQF37-4" style="edgeStyle=orthogonalEdgeStyle;rounded=0;orthogonalLoop=1;jettySize=auto;html=1;entryX=0.5;entryY=0;entryDx=0;entryDy=0;" edge="1" parent="-lBjVlE2T4ovlDLPQF37-1" source="-lBjVlE2T4ovlDLPQF37-5" target="-lBjVlE2T4ovlDLPQF37-10">
          <mxGeometry relative="1" as="geometry" />
        </mxCell>
        <mxCell id="-lBjVlE2T4ovlDLPQF37-5" value="123" style="ellipse;whiteSpace=wrap;html=1;aspect=fixed;" vertex="1" parent="-lBjVlE2T4ovlDLPQF37-1">
          <mxGeometry x="380" y="50" width="50" height="50" as="geometry" />
        </mxCell>
        <mxCell id="-lBjVlE2T4ovlDLPQF37-6" style="edgeStyle=orthogonalEdgeStyle;rounded=0;orthogonalLoop=1;jettySize=auto;html=1;entryX=0.5;entryY=0;entryDx=0;entryDy=0;" edge="1" parent="-lBjVlE2T4ovlDLPQF37-1" source="-lBjVlE2T4ovlDLPQF37-8" target="-lBjVlE2T4ovlDLPQF37-12">
          <mxGeometry relative="1" as="geometry" />
        </mxCell>
        <mxCell id="-lBjVlE2T4ovlDLPQF37-7" style="edgeStyle=orthogonalEdgeStyle;rounded=0;orthogonalLoop=1;jettySize=auto;html=1;" edge="1" parent="-lBjVlE2T4ovlDLPQF37-1" source="-lBjVlE2T4ovlDLPQF37-8" target="-lBjVlE2T4ovlDLPQF37-15">
          <mxGeometry relative="1" as="geometry" />
        </mxCell>
        <mxCell id="-lBjVlE2T4ovlDLPQF37-8" value="133" style="ellipse;whiteSpace=wrap;html=1;aspect=fixed;" vertex="1" parent="-lBjVlE2T4ovlDLPQF37-1">
          <mxGeometry x="340" y="130" width="50" height="50" as="geometry" />
        </mxCell>
        <mxCell id="-lBjVlE2T4ovlDLPQF37-9" style="edgeStyle=orthogonalEdgeStyle;rounded=0;orthogonalLoop=1;jettySize=auto;html=1;entryX=0.5;entryY=0;entryDx=0;entryDy=0;" edge="1" parent="-lBjVlE2T4ovlDLPQF37-1" source="-lBjVlE2T4ovlDLPQF37-10" target="-lBjVlE2T4ovlDLPQF37-18">
          <mxGeometry relative="1" as="geometry" />
        </mxCell>
        <mxCell id="-lBjVlE2T4ovlDLPQF37-10" value="9" style="ellipse;whiteSpace=wrap;html=1;aspect=fixed;fillColor=#dae8fc;strokeColor=#6c8ebf;" vertex="1" parent="-lBjVlE2T4ovlDLPQF37-1">
          <mxGeometry x="420" y="130" width="50" height="50" as="geometry" />
        </mxCell>
        <mxCell id="-lBjVlE2T4ovlDLPQF37-11" style="edgeStyle=orthogonalEdgeStyle;rounded=0;orthogonalLoop=1;jettySize=auto;html=1;" edge="1" parent="-lBjVlE2T4ovlDLPQF37-1" source="-lBjVlE2T4ovlDLPQF37-12" target="-lBjVlE2T4ovlDLPQF37-20">
          <mxGeometry relative="1" as="geometry" />
        </mxCell>
        <mxCell id="-lBjVlE2T4ovlDLPQF37-12" value="37" style="ellipse;whiteSpace=wrap;html=1;aspect=fixed;" vertex="1" parent="-lBjVlE2T4ovlDLPQF37-1">
          <mxGeometry x="135" y="190" width="50" height="50" as="geometry" />
        </mxCell>
        <mxCell id="-lBjVlE2T4ovlDLPQF37-13" style="edgeStyle=orthogonalEdgeStyle;rounded=0;orthogonalLoop=1;jettySize=auto;html=1;" edge="1" parent="-lBjVlE2T4ovlDLPQF37-1" source="-lBjVlE2T4ovlDLPQF37-15" target="-lBjVlE2T4ovlDLPQF37-21">
          <mxGeometry relative="1" as="geometry" />
        </mxCell>
        <mxCell id="-lBjVlE2T4ovlDLPQF37-14" style="edgeStyle=orthogonalEdgeStyle;rounded=0;orthogonalLoop=1;jettySize=auto;html=1;entryX=0.5;entryY=0;entryDx=0;entryDy=0;" edge="1" parent="-lBjVlE2T4ovlDLPQF37-1" source="-lBjVlE2T4ovlDLPQF37-15" target="-lBjVlE2T4ovlDLPQF37-22">
          <mxGeometry relative="1" as="geometry" />
        </mxCell>
        <mxCell id="-lBjVlE2T4ovlDLPQF37-15" value="53" style="ellipse;whiteSpace=wrap;html=1;aspect=fixed;" vertex="1" parent="-lBjVlE2T4ovlDLPQF37-1">
          <mxGeometry x="260" y="190" width="50" height="50" as="geometry" />
        </mxCell>
        <mxCell id="-lBjVlE2T4ovlDLPQF37-16" style="edgeStyle=orthogonalEdgeStyle;rounded=0;orthogonalLoop=1;jettySize=auto;html=1;" edge="1" parent="-lBjVlE2T4ovlDLPQF37-1" source="-lBjVlE2T4ovlDLPQF37-17" target="-lBjVlE2T4ovlDLPQF37-23">
          <mxGeometry relative="1" as="geometry" />
        </mxCell>
        <mxCell id="-lBjVlE2T4ovlDLPQF37-17" value="25" style="ellipse;whiteSpace=wrap;html=1;aspect=fixed;" vertex="1" parent="-lBjVlE2T4ovlDLPQF37-1">
          <mxGeometry x="490" y="190" width="50" height="50" as="geometry" />
        </mxCell>
        <mxCell id="-lBjVlE2T4ovlDLPQF37-18" value="66" style="ellipse;whiteSpace=wrap;html=1;aspect=fixed;fillColor=#dae8fc;strokeColor=#6c8ebf;" vertex="1" parent="-lBjVlE2T4ovlDLPQF37-1">
          <mxGeometry x="570" y="190" width="50" height="50" as="geometry" />
        </mxCell>
        <mxCell id="-lBjVlE2T4ovlDLPQF37-19" value="103" style="ellipse;whiteSpace=wrap;html=1;aspect=fixed;" vertex="1" parent="-lBjVlE2T4ovlDLPQF37-1">
          <mxGeometry x="100" y="260" width="50" height="50" as="geometry" />
        </mxCell>
        <mxCell id="-lBjVlE2T4ovlDLPQF37-20" value="111" style="ellipse;whiteSpace=wrap;html=1;aspect=fixed;" vertex="1" parent="-lBjVlE2T4ovlDLPQF37-1">
          <mxGeometry x="170" y="260" width="50" height="50" as="geometry" />
        </mxCell>
        <mxCell id="-lBjVlE2T4ovlDLPQF37-21" value="59" style="ellipse;whiteSpace=wrap;html=1;aspect=fixed;" vertex="1" parent="-lBjVlE2T4ovlDLPQF37-1">
          <mxGeometry x="230" y="260" width="50" height="50" as="geometry" />
        </mxCell>
        <mxCell id="-lBjVlE2T4ovlDLPQF37-22" value="83" style="ellipse;whiteSpace=wrap;html=1;aspect=fixed;" vertex="1" parent="-lBjVlE2T4ovlDLPQF37-1">
          <mxGeometry x="290" y="260" width="50" height="50" as="geometry" />
        </mxCell>
        <mxCell id="-lBjVlE2T4ovlDLPQF37-23" value="42" style="ellipse;whiteSpace=wrap;html=1;aspect=fixed;" vertex="1" parent="-lBjVlE2T4ovlDLPQF37-1">
          <mxGeometry x="430" y="260" width="50" height="50" as="geometry" />
        </mxCell>
        <mxCell id="-lBjVlE2T4ovlDLPQF37-24" style="edgeStyle=orthogonalEdgeStyle;rounded=0;orthogonalLoop=1;jettySize=auto;html=1;entryX=0.38;entryY=0.1;entryDx=0;entryDy=0;entryPerimeter=0;" edge="1" parent="-lBjVlE2T4ovlDLPQF37-1" source="-lBjVlE2T4ovlDLPQF37-12" target="-lBjVlE2T4ovlDLPQF37-19">
          <mxGeometry relative="1" as="geometry" />
        </mxCell>
        <mxCell id="-lBjVlE2T4ovlDLPQF37-25" style="edgeStyle=orthogonalEdgeStyle;rounded=0;orthogonalLoop=1;jettySize=auto;html=1;entryX=0.64;entryY=-0.04;entryDx=0;entryDy=0;entryPerimeter=0;" edge="1" parent="-lBjVlE2T4ovlDLPQF37-1" source="-lBjVlE2T4ovlDLPQF37-10" target="-lBjVlE2T4ovlDLPQF37-17">
          <mxGeometry relative="1" as="geometry" />
        </mxCell>
      </root>
    </mxGraphModel>
  </diagram>
  <diagram name="PÃ¡gina-6" id="b9ZmU2zgdtEDx-fEWQZb">
    <mxGraphModel dx="833" dy="463" grid="1" gridSize="10" guides="1" tooltips="1" connect="1" arrows="1" fold="1" page="1" pageScale="1" pageWidth="827" pageHeight="1169" math="0" shadow="0">
      <root>
        <mxCell id="dWMtiK40H1r0KsXZlYZn-0" />
        <mxCell id="dWMtiK40H1r0KsXZlYZn-1" parent="dWMtiK40H1r0KsXZlYZn-0" />
        <mxCell id="dWMtiK40H1r0KsXZlYZn-3" style="edgeStyle=orthogonalEdgeStyle;rounded=0;orthogonalLoop=1;jettySize=auto;html=1;entryX=0.5;entryY=0;entryDx=0;entryDy=0;" edge="1" parent="dWMtiK40H1r0KsXZlYZn-1" source="dWMtiK40H1r0KsXZlYZn-5" target="dWMtiK40H1r0KsXZlYZn-8">
          <mxGeometry relative="1" as="geometry" />
        </mxCell>
        <mxCell id="dWMtiK40H1r0KsXZlYZn-4" style="edgeStyle=orthogonalEdgeStyle;rounded=0;orthogonalLoop=1;jettySize=auto;html=1;entryX=0.5;entryY=0;entryDx=0;entryDy=0;" edge="1" parent="dWMtiK40H1r0KsXZlYZn-1" source="dWMtiK40H1r0KsXZlYZn-5" target="dWMtiK40H1r0KsXZlYZn-10">
          <mxGeometry relative="1" as="geometry" />
        </mxCell>
        <mxCell id="dWMtiK40H1r0KsXZlYZn-5" value="123" style="ellipse;whiteSpace=wrap;html=1;aspect=fixed;" vertex="1" parent="dWMtiK40H1r0KsXZlYZn-1">
          <mxGeometry x="380" y="50" width="50" height="50" as="geometry" />
        </mxCell>
        <mxCell id="dWMtiK40H1r0KsXZlYZn-6" style="edgeStyle=orthogonalEdgeStyle;rounded=0;orthogonalLoop=1;jettySize=auto;html=1;entryX=0.5;entryY=0;entryDx=0;entryDy=0;" edge="1" parent="dWMtiK40H1r0KsXZlYZn-1" source="dWMtiK40H1r0KsXZlYZn-8" target="dWMtiK40H1r0KsXZlYZn-12">
          <mxGeometry relative="1" as="geometry" />
        </mxCell>
        <mxCell id="dWMtiK40H1r0KsXZlYZn-7" style="edgeStyle=orthogonalEdgeStyle;rounded=0;orthogonalLoop=1;jettySize=auto;html=1;" edge="1" parent="dWMtiK40H1r0KsXZlYZn-1" source="dWMtiK40H1r0KsXZlYZn-8" target="dWMtiK40H1r0KsXZlYZn-15">
          <mxGeometry relative="1" as="geometry" />
        </mxCell>
        <mxCell id="dWMtiK40H1r0KsXZlYZn-8" value="37" style="ellipse;whiteSpace=wrap;html=1;aspect=fixed;fillColor=#dae8fc;strokeColor=#6c8ebf;" vertex="1" parent="dWMtiK40H1r0KsXZlYZn-1">
          <mxGeometry x="340" y="130" width="50" height="50" as="geometry" />
        </mxCell>
        <mxCell id="dWMtiK40H1r0KsXZlYZn-9" style="edgeStyle=orthogonalEdgeStyle;rounded=0;orthogonalLoop=1;jettySize=auto;html=1;entryX=0.5;entryY=0;entryDx=0;entryDy=0;" edge="1" parent="dWMtiK40H1r0KsXZlYZn-1" source="dWMtiK40H1r0KsXZlYZn-10" target="dWMtiK40H1r0KsXZlYZn-18">
          <mxGeometry relative="1" as="geometry" />
        </mxCell>
        <mxCell id="dWMtiK40H1r0KsXZlYZn-10" value="9" style="ellipse;whiteSpace=wrap;html=1;aspect=fixed;" vertex="1" parent="dWMtiK40H1r0KsXZlYZn-1">
          <mxGeometry x="420" y="130" width="50" height="50" as="geometry" />
        </mxCell>
        <mxCell id="dWMtiK40H1r0KsXZlYZn-11" style="edgeStyle=orthogonalEdgeStyle;rounded=0;orthogonalLoop=1;jettySize=auto;html=1;" edge="1" parent="dWMtiK40H1r0KsXZlYZn-1" source="dWMtiK40H1r0KsXZlYZn-12" target="dWMtiK40H1r0KsXZlYZn-20">
          <mxGeometry relative="1" as="geometry" />
        </mxCell>
        <mxCell id="dWMtiK40H1r0KsXZlYZn-12" value="133" style="ellipse;whiteSpace=wrap;html=1;aspect=fixed;fillColor=#dae8fc;strokeColor=#6c8ebf;" vertex="1" parent="dWMtiK40H1r0KsXZlYZn-1">
          <mxGeometry x="135" y="190" width="50" height="50" as="geometry" />
        </mxCell>
        <mxCell id="dWMtiK40H1r0KsXZlYZn-13" style="edgeStyle=orthogonalEdgeStyle;rounded=0;orthogonalLoop=1;jettySize=auto;html=1;" edge="1" parent="dWMtiK40H1r0KsXZlYZn-1" source="dWMtiK40H1r0KsXZlYZn-15" target="dWMtiK40H1r0KsXZlYZn-21">
          <mxGeometry relative="1" as="geometry" />
        </mxCell>
        <mxCell id="dWMtiK40H1r0KsXZlYZn-14" style="edgeStyle=orthogonalEdgeStyle;rounded=0;orthogonalLoop=1;jettySize=auto;html=1;entryX=0.5;entryY=0;entryDx=0;entryDy=0;" edge="1" parent="dWMtiK40H1r0KsXZlYZn-1" source="dWMtiK40H1r0KsXZlYZn-15" target="dWMtiK40H1r0KsXZlYZn-22">
          <mxGeometry relative="1" as="geometry" />
        </mxCell>
        <mxCell id="dWMtiK40H1r0KsXZlYZn-15" value="53" style="ellipse;whiteSpace=wrap;html=1;aspect=fixed;" vertex="1" parent="dWMtiK40H1r0KsXZlYZn-1">
          <mxGeometry x="260" y="190" width="50" height="50" as="geometry" />
        </mxCell>
        <mxCell id="dWMtiK40H1r0KsXZlYZn-16" style="edgeStyle=orthogonalEdgeStyle;rounded=0;orthogonalLoop=1;jettySize=auto;html=1;" edge="1" parent="dWMtiK40H1r0KsXZlYZn-1" source="dWMtiK40H1r0KsXZlYZn-17" target="dWMtiK40H1r0KsXZlYZn-23">
          <mxGeometry relative="1" as="geometry" />
        </mxCell>
        <mxCell id="dWMtiK40H1r0KsXZlYZn-17" value="25" style="ellipse;whiteSpace=wrap;html=1;aspect=fixed;" vertex="1" parent="dWMtiK40H1r0KsXZlYZn-1">
          <mxGeometry x="490" y="190" width="50" height="50" as="geometry" />
        </mxCell>
        <mxCell id="dWMtiK40H1r0KsXZlYZn-18" value="66" style="ellipse;whiteSpace=wrap;html=1;aspect=fixed;" vertex="1" parent="dWMtiK40H1r0KsXZlYZn-1">
          <mxGeometry x="570" y="190" width="50" height="50" as="geometry" />
        </mxCell>
        <mxCell id="dWMtiK40H1r0KsXZlYZn-19" value="103" style="ellipse;whiteSpace=wrap;html=1;aspect=fixed;" vertex="1" parent="dWMtiK40H1r0KsXZlYZn-1">
          <mxGeometry x="100" y="260" width="50" height="50" as="geometry" />
        </mxCell>
        <mxCell id="dWMtiK40H1r0KsXZlYZn-20" value="111" style="ellipse;whiteSpace=wrap;html=1;aspect=fixed;" vertex="1" parent="dWMtiK40H1r0KsXZlYZn-1">
          <mxGeometry x="170" y="260" width="50" height="50" as="geometry" />
        </mxCell>
        <mxCell id="dWMtiK40H1r0KsXZlYZn-21" value="59" style="ellipse;whiteSpace=wrap;html=1;aspect=fixed;" vertex="1" parent="dWMtiK40H1r0KsXZlYZn-1">
          <mxGeometry x="230" y="260" width="50" height="50" as="geometry" />
        </mxCell>
        <mxCell id="dWMtiK40H1r0KsXZlYZn-22" value="83" style="ellipse;whiteSpace=wrap;html=1;aspect=fixed;" vertex="1" parent="dWMtiK40H1r0KsXZlYZn-1">
          <mxGeometry x="290" y="260" width="50" height="50" as="geometry" />
        </mxCell>
        <mxCell id="dWMtiK40H1r0KsXZlYZn-23" value="42" style="ellipse;whiteSpace=wrap;html=1;aspect=fixed;" vertex="1" parent="dWMtiK40H1r0KsXZlYZn-1">
          <mxGeometry x="430" y="260" width="50" height="50" as="geometry" />
        </mxCell>
        <mxCell id="dWMtiK40H1r0KsXZlYZn-24" style="edgeStyle=orthogonalEdgeStyle;rounded=0;orthogonalLoop=1;jettySize=auto;html=1;entryX=0.38;entryY=0.1;entryDx=0;entryDy=0;entryPerimeter=0;" edge="1" parent="dWMtiK40H1r0KsXZlYZn-1" source="dWMtiK40H1r0KsXZlYZn-12" target="dWMtiK40H1r0KsXZlYZn-19">
          <mxGeometry relative="1" as="geometry" />
        </mxCell>
        <mxCell id="dWMtiK40H1r0KsXZlYZn-25" style="edgeStyle=orthogonalEdgeStyle;rounded=0;orthogonalLoop=1;jettySize=auto;html=1;entryX=0.64;entryY=-0.04;entryDx=0;entryDy=0;entryPerimeter=0;" edge="1" parent="dWMtiK40H1r0KsXZlYZn-1" source="dWMtiK40H1r0KsXZlYZn-10" target="dWMtiK40H1r0KsXZlYZn-17">
          <mxGeometry relative="1" as="geometry" />
        </mxCell>
      </root>
    </mxGraphModel>
  </diagram>
  <diagram name="PÃ¡gina-7" id="GGsw85WyDK61GgeqbgZm">
    <mxGraphModel dx="833" dy="463" grid="1" gridSize="10" guides="1" tooltips="1" connect="1" arrows="1" fold="1" page="1" pageScale="1" pageWidth="827" pageHeight="1169" math="0" shadow="0">
      <root>
        <mxCell id="juXlanz3YXgMTDCTKazf-0" />
        <mxCell id="juXlanz3YXgMTDCTKazf-1" parent="juXlanz3YXgMTDCTKazf-0" />
        <mxCell id="juXlanz3YXgMTDCTKazf-3" style="edgeStyle=orthogonalEdgeStyle;rounded=0;orthogonalLoop=1;jettySize=auto;html=1;entryX=0.5;entryY=0;entryDx=0;entryDy=0;" edge="1" parent="juXlanz3YXgMTDCTKazf-1" source="juXlanz3YXgMTDCTKazf-5" target="juXlanz3YXgMTDCTKazf-8">
          <mxGeometry relative="1" as="geometry" />
        </mxCell>
        <mxCell id="juXlanz3YXgMTDCTKazf-4" style="edgeStyle=orthogonalEdgeStyle;rounded=0;orthogonalLoop=1;jettySize=auto;html=1;entryX=0.5;entryY=0;entryDx=0;entryDy=0;" edge="1" parent="juXlanz3YXgMTDCTKazf-1" source="juXlanz3YXgMTDCTKazf-5" target="juXlanz3YXgMTDCTKazf-10">
          <mxGeometry relative="1" as="geometry" />
        </mxCell>
        <mxCell id="juXlanz3YXgMTDCTKazf-5" value="123" style="ellipse;whiteSpace=wrap;html=1;aspect=fixed;" vertex="1" parent="juXlanz3YXgMTDCTKazf-1">
          <mxGeometry x="380" y="50" width="50" height="50" as="geometry" />
        </mxCell>
        <mxCell id="juXlanz3YXgMTDCTKazf-6" style="edgeStyle=orthogonalEdgeStyle;rounded=0;orthogonalLoop=1;jettySize=auto;html=1;entryX=0.5;entryY=0;entryDx=0;entryDy=0;" edge="1" parent="juXlanz3YXgMTDCTKazf-1" source="juXlanz3YXgMTDCTKazf-8" target="juXlanz3YXgMTDCTKazf-12">
          <mxGeometry relative="1" as="geometry" />
        </mxCell>
        <mxCell id="juXlanz3YXgMTDCTKazf-7" style="edgeStyle=orthogonalEdgeStyle;rounded=0;orthogonalLoop=1;jettySize=auto;html=1;" edge="1" parent="juXlanz3YXgMTDCTKazf-1" source="juXlanz3YXgMTDCTKazf-8" target="juXlanz3YXgMTDCTKazf-15">
          <mxGeometry relative="1" as="geometry" />
        </mxCell>
        <mxCell id="juXlanz3YXgMTDCTKazf-8" value="37" style="ellipse;whiteSpace=wrap;html=1;aspect=fixed;fillColor=#dae8fc;strokeColor=#6c8ebf;" vertex="1" parent="juXlanz3YXgMTDCTKazf-1">
          <mxGeometry x="340" y="130" width="50" height="50" as="geometry" />
        </mxCell>
        <mxCell id="juXlanz3YXgMTDCTKazf-9" style="edgeStyle=orthogonalEdgeStyle;rounded=0;orthogonalLoop=1;jettySize=auto;html=1;entryX=0.5;entryY=0;entryDx=0;entryDy=0;" edge="1" parent="juXlanz3YXgMTDCTKazf-1" source="juXlanz3YXgMTDCTKazf-10" target="juXlanz3YXgMTDCTKazf-18">
          <mxGeometry relative="1" as="geometry" />
        </mxCell>
        <mxCell id="juXlanz3YXgMTDCTKazf-10" value="9" style="ellipse;whiteSpace=wrap;html=1;aspect=fixed;" vertex="1" parent="juXlanz3YXgMTDCTKazf-1">
          <mxGeometry x="420" y="130" width="50" height="50" as="geometry" />
        </mxCell>
        <mxCell id="juXlanz3YXgMTDCTKazf-11" style="edgeStyle=orthogonalEdgeStyle;rounded=0;orthogonalLoop=1;jettySize=auto;html=1;" edge="1" parent="juXlanz3YXgMTDCTKazf-1" source="juXlanz3YXgMTDCTKazf-12" target="juXlanz3YXgMTDCTKazf-20">
          <mxGeometry relative="1" as="geometry" />
        </mxCell>
        <mxCell id="juXlanz3YXgMTDCTKazf-12" value="103" style="ellipse;whiteSpace=wrap;html=1;aspect=fixed;fillColor=#dae8fc;strokeColor=#6c8ebf;" vertex="1" parent="juXlanz3YXgMTDCTKazf-1">
          <mxGeometry x="135" y="190" width="50" height="50" as="geometry" />
        </mxCell>
        <mxCell id="juXlanz3YXgMTDCTKazf-13" style="edgeStyle=orthogonalEdgeStyle;rounded=0;orthogonalLoop=1;jettySize=auto;html=1;" edge="1" parent="juXlanz3YXgMTDCTKazf-1" source="juXlanz3YXgMTDCTKazf-15" target="juXlanz3YXgMTDCTKazf-21">
          <mxGeometry relative="1" as="geometry" />
        </mxCell>
        <mxCell id="juXlanz3YXgMTDCTKazf-14" style="edgeStyle=orthogonalEdgeStyle;rounded=0;orthogonalLoop=1;jettySize=auto;html=1;entryX=0.5;entryY=0;entryDx=0;entryDy=0;" edge="1" parent="juXlanz3YXgMTDCTKazf-1" source="juXlanz3YXgMTDCTKazf-15" target="juXlanz3YXgMTDCTKazf-22">
          <mxGeometry relative="1" as="geometry" />
        </mxCell>
        <mxCell id="juXlanz3YXgMTDCTKazf-15" value="53" style="ellipse;whiteSpace=wrap;html=1;aspect=fixed;" vertex="1" parent="juXlanz3YXgMTDCTKazf-1">
          <mxGeometry x="260" y="190" width="50" height="50" as="geometry" />
        </mxCell>
        <mxCell id="juXlanz3YXgMTDCTKazf-16" style="edgeStyle=orthogonalEdgeStyle;rounded=0;orthogonalLoop=1;jettySize=auto;html=1;" edge="1" parent="juXlanz3YXgMTDCTKazf-1" source="juXlanz3YXgMTDCTKazf-17" target="juXlanz3YXgMTDCTKazf-23">
          <mxGeometry relative="1" as="geometry" />
        </mxCell>
        <mxCell id="juXlanz3YXgMTDCTKazf-17" value="25" style="ellipse;whiteSpace=wrap;html=1;aspect=fixed;" vertex="1" parent="juXlanz3YXgMTDCTKazf-1">
          <mxGeometry x="490" y="190" width="50" height="50" as="geometry" />
        </mxCell>
        <mxCell id="juXlanz3YXgMTDCTKazf-18" value="66" style="ellipse;whiteSpace=wrap;html=1;aspect=fixed;" vertex="1" parent="juXlanz3YXgMTDCTKazf-1">
          <mxGeometry x="570" y="190" width="50" height="50" as="geometry" />
        </mxCell>
        <mxCell id="juXlanz3YXgMTDCTKazf-19" value="133" style="ellipse;whiteSpace=wrap;html=1;aspect=fixed;fillColor=#dae8fc;strokeColor=#6c8ebf;" vertex="1" parent="juXlanz3YXgMTDCTKazf-1">
          <mxGeometry x="100" y="260" width="50" height="50" as="geometry" />
        </mxCell>
        <mxCell id="juXlanz3YXgMTDCTKazf-20" value="111" style="ellipse;whiteSpace=wrap;html=1;aspect=fixed;" vertex="1" parent="juXlanz3YXgMTDCTKazf-1">
          <mxGeometry x="170" y="260" width="50" height="50" as="geometry" />
        </mxCell>
        <mxCell id="juXlanz3YXgMTDCTKazf-21" value="59" style="ellipse;whiteSpace=wrap;html=1;aspect=fixed;" vertex="1" parent="juXlanz3YXgMTDCTKazf-1">
          <mxGeometry x="230" y="260" width="50" height="50" as="geometry" />
        </mxCell>
        <mxCell id="juXlanz3YXgMTDCTKazf-22" value="83" style="ellipse;whiteSpace=wrap;html=1;aspect=fixed;" vertex="1" parent="juXlanz3YXgMTDCTKazf-1">
          <mxGeometry x="290" y="260" width="50" height="50" as="geometry" />
        </mxCell>
        <mxCell id="juXlanz3YXgMTDCTKazf-23" value="42" style="ellipse;whiteSpace=wrap;html=1;aspect=fixed;" vertex="1" parent="juXlanz3YXgMTDCTKazf-1">
          <mxGeometry x="430" y="260" width="50" height="50" as="geometry" />
        </mxCell>
        <mxCell id="juXlanz3YXgMTDCTKazf-24" style="edgeStyle=orthogonalEdgeStyle;rounded=0;orthogonalLoop=1;jettySize=auto;html=1;entryX=0.38;entryY=0.1;entryDx=0;entryDy=0;entryPerimeter=0;" edge="1" parent="juXlanz3YXgMTDCTKazf-1" source="juXlanz3YXgMTDCTKazf-12" target="juXlanz3YXgMTDCTKazf-19">
          <mxGeometry relative="1" as="geometry" />
        </mxCell>
        <mxCell id="juXlanz3YXgMTDCTKazf-25" style="edgeStyle=orthogonalEdgeStyle;rounded=0;orthogonalLoop=1;jettySize=auto;html=1;entryX=0.64;entryY=-0.04;entryDx=0;entryDy=0;entryPerimeter=0;" edge="1" parent="juXlanz3YXgMTDCTKazf-1" source="juXlanz3YXgMTDCTKazf-10" target="juXlanz3YXgMTDCTKazf-17">
          <mxGeometry relative="1" as="geometry" />
        </mxCell>
      </root>
    </mxGraphModel>
  </diagram>
  <diagram name="PÃ¡gina-8" id="moTNdBAa-YLGYuQp1SQF">
    <mxGraphModel dx="833" dy="463" grid="1" gridSize="10" guides="1" tooltips="1" connect="1" arrows="1" fold="1" page="1" pageScale="1" pageWidth="827" pageHeight="1169" math="0" shadow="0">
      <root>
        <mxCell id="djSCVzUhIS3fy1gRpImx-0" />
        <mxCell id="djSCVzUhIS3fy1gRpImx-1" parent="djSCVzUhIS3fy1gRpImx-0" />
        <mxCell id="djSCVzUhIS3fy1gRpImx-3" style="edgeStyle=orthogonalEdgeStyle;rounded=0;orthogonalLoop=1;jettySize=auto;html=1;entryX=0.5;entryY=0;entryDx=0;entryDy=0;" edge="1" parent="djSCVzUhIS3fy1gRpImx-1" source="djSCVzUhIS3fy1gRpImx-5" target="djSCVzUhIS3fy1gRpImx-8">
          <mxGeometry relative="1" as="geometry" />
        </mxCell>
        <mxCell id="djSCVzUhIS3fy1gRpImx-4" style="edgeStyle=orthogonalEdgeStyle;rounded=0;orthogonalLoop=1;jettySize=auto;html=1;entryX=0.5;entryY=0;entryDx=0;entryDy=0;" edge="1" parent="djSCVzUhIS3fy1gRpImx-1" source="djSCVzUhIS3fy1gRpImx-5" target="djSCVzUhIS3fy1gRpImx-10">
          <mxGeometry relative="1" as="geometry" />
        </mxCell>
        <mxCell id="djSCVzUhIS3fy1gRpImx-5" value="9" style="ellipse;whiteSpace=wrap;html=1;aspect=fixed;fillColor=#dae8fc;strokeColor=#6c8ebf;" vertex="1" parent="djSCVzUhIS3fy1gRpImx-1">
          <mxGeometry x="380" y="50" width="50" height="50" as="geometry" />
        </mxCell>
        <mxCell id="djSCVzUhIS3fy1gRpImx-6" style="edgeStyle=orthogonalEdgeStyle;rounded=0;orthogonalLoop=1;jettySize=auto;html=1;entryX=0.5;entryY=0;entryDx=0;entryDy=0;" edge="1" parent="djSCVzUhIS3fy1gRpImx-1" source="djSCVzUhIS3fy1gRpImx-8" target="djSCVzUhIS3fy1gRpImx-12">
          <mxGeometry relative="1" as="geometry" />
        </mxCell>
        <mxCell id="djSCVzUhIS3fy1gRpImx-7" style="edgeStyle=orthogonalEdgeStyle;rounded=0;orthogonalLoop=1;jettySize=auto;html=1;" edge="1" parent="djSCVzUhIS3fy1gRpImx-1" source="djSCVzUhIS3fy1gRpImx-8" target="djSCVzUhIS3fy1gRpImx-15">
          <mxGeometry relative="1" as="geometry" />
        </mxCell>
        <mxCell id="djSCVzUhIS3fy1gRpImx-8" value="37" style="ellipse;whiteSpace=wrap;html=1;aspect=fixed;" vertex="1" parent="djSCVzUhIS3fy1gRpImx-1">
          <mxGeometry x="340" y="130" width="50" height="50" as="geometry" />
        </mxCell>
        <mxCell id="djSCVzUhIS3fy1gRpImx-9" style="edgeStyle=orthogonalEdgeStyle;rounded=0;orthogonalLoop=1;jettySize=auto;html=1;entryX=0.5;entryY=0;entryDx=0;entryDy=0;" edge="1" parent="djSCVzUhIS3fy1gRpImx-1" source="djSCVzUhIS3fy1gRpImx-10" target="djSCVzUhIS3fy1gRpImx-18">
          <mxGeometry relative="1" as="geometry" />
        </mxCell>
        <mxCell id="djSCVzUhIS3fy1gRpImx-10" value="123" style="ellipse;whiteSpace=wrap;html=1;aspect=fixed;fillColor=#dae8fc;strokeColor=#6c8ebf;" vertex="1" parent="djSCVzUhIS3fy1gRpImx-1">
          <mxGeometry x="420" y="130" width="50" height="50" as="geometry" />
        </mxCell>
        <mxCell id="djSCVzUhIS3fy1gRpImx-11" style="edgeStyle=orthogonalEdgeStyle;rounded=0;orthogonalLoop=1;jettySize=auto;html=1;" edge="1" parent="djSCVzUhIS3fy1gRpImx-1" source="djSCVzUhIS3fy1gRpImx-12" target="djSCVzUhIS3fy1gRpImx-20">
          <mxGeometry relative="1" as="geometry" />
        </mxCell>
        <mxCell id="djSCVzUhIS3fy1gRpImx-12" value="103" style="ellipse;whiteSpace=wrap;html=1;aspect=fixed;" vertex="1" parent="djSCVzUhIS3fy1gRpImx-1">
          <mxGeometry x="135" y="190" width="50" height="50" as="geometry" />
        </mxCell>
        <mxCell id="djSCVzUhIS3fy1gRpImx-13" style="edgeStyle=orthogonalEdgeStyle;rounded=0;orthogonalLoop=1;jettySize=auto;html=1;" edge="1" parent="djSCVzUhIS3fy1gRpImx-1" source="djSCVzUhIS3fy1gRpImx-15" target="djSCVzUhIS3fy1gRpImx-21">
          <mxGeometry relative="1" as="geometry" />
        </mxCell>
        <mxCell id="djSCVzUhIS3fy1gRpImx-14" style="edgeStyle=orthogonalEdgeStyle;rounded=0;orthogonalLoop=1;jettySize=auto;html=1;entryX=0.5;entryY=0;entryDx=0;entryDy=0;" edge="1" parent="djSCVzUhIS3fy1gRpImx-1" source="djSCVzUhIS3fy1gRpImx-15" target="djSCVzUhIS3fy1gRpImx-22">
          <mxGeometry relative="1" as="geometry" />
        </mxCell>
        <mxCell id="djSCVzUhIS3fy1gRpImx-15" value="53" style="ellipse;whiteSpace=wrap;html=1;aspect=fixed;" vertex="1" parent="djSCVzUhIS3fy1gRpImx-1">
          <mxGeometry x="260" y="190" width="50" height="50" as="geometry" />
        </mxCell>
        <mxCell id="djSCVzUhIS3fy1gRpImx-16" style="edgeStyle=orthogonalEdgeStyle;rounded=0;orthogonalLoop=1;jettySize=auto;html=1;" edge="1" parent="djSCVzUhIS3fy1gRpImx-1" source="djSCVzUhIS3fy1gRpImx-17" target="djSCVzUhIS3fy1gRpImx-23">
          <mxGeometry relative="1" as="geometry" />
        </mxCell>
        <mxCell id="djSCVzUhIS3fy1gRpImx-17" value="25" style="ellipse;whiteSpace=wrap;html=1;aspect=fixed;" vertex="1" parent="djSCVzUhIS3fy1gRpImx-1">
          <mxGeometry x="490" y="190" width="50" height="50" as="geometry" />
        </mxCell>
        <mxCell id="djSCVzUhIS3fy1gRpImx-18" value="66" style="ellipse;whiteSpace=wrap;html=1;aspect=fixed;" vertex="1" parent="djSCVzUhIS3fy1gRpImx-1">
          <mxGeometry x="570" y="190" width="50" height="50" as="geometry" />
        </mxCell>
        <mxCell id="djSCVzUhIS3fy1gRpImx-19" value="133" style="ellipse;whiteSpace=wrap;html=1;aspect=fixed;" vertex="1" parent="djSCVzUhIS3fy1gRpImx-1">
          <mxGeometry x="100" y="260" width="50" height="50" as="geometry" />
        </mxCell>
        <mxCell id="djSCVzUhIS3fy1gRpImx-20" value="111" style="ellipse;whiteSpace=wrap;html=1;aspect=fixed;" vertex="1" parent="djSCVzUhIS3fy1gRpImx-1">
          <mxGeometry x="170" y="260" width="50" height="50" as="geometry" />
        </mxCell>
        <mxCell id="djSCVzUhIS3fy1gRpImx-21" value="59" style="ellipse;whiteSpace=wrap;html=1;aspect=fixed;" vertex="1" parent="djSCVzUhIS3fy1gRpImx-1">
          <mxGeometry x="230" y="260" width="50" height="50" as="geometry" />
        </mxCell>
        <mxCell id="djSCVzUhIS3fy1gRpImx-22" value="83" style="ellipse;whiteSpace=wrap;html=1;aspect=fixed;" vertex="1" parent="djSCVzUhIS3fy1gRpImx-1">
          <mxGeometry x="290" y="260" width="50" height="50" as="geometry" />
        </mxCell>
        <mxCell id="djSCVzUhIS3fy1gRpImx-23" value="42" style="ellipse;whiteSpace=wrap;html=1;aspect=fixed;" vertex="1" parent="djSCVzUhIS3fy1gRpImx-1">
          <mxGeometry x="430" y="260" width="50" height="50" as="geometry" />
        </mxCell>
        <mxCell id="djSCVzUhIS3fy1gRpImx-24" style="edgeStyle=orthogonalEdgeStyle;rounded=0;orthogonalLoop=1;jettySize=auto;html=1;entryX=0.38;entryY=0.1;entryDx=0;entryDy=0;entryPerimeter=0;" edge="1" parent="djSCVzUhIS3fy1gRpImx-1" source="djSCVzUhIS3fy1gRpImx-12" target="djSCVzUhIS3fy1gRpImx-19">
          <mxGeometry relative="1" as="geometry" />
        </mxCell>
        <mxCell id="djSCVzUhIS3fy1gRpImx-25" style="edgeStyle=orthogonalEdgeStyle;rounded=0;orthogonalLoop=1;jettySize=auto;html=1;entryX=0.64;entryY=-0.04;entryDx=0;entryDy=0;entryPerimeter=0;" edge="1" parent="djSCVzUhIS3fy1gRpImx-1" source="djSCVzUhIS3fy1gRpImx-10" target="djSCVzUhIS3fy1gRpImx-17">
          <mxGeometry relative="1" as="geometry" />
        </mxCell>
      </root>
    </mxGraphModel>
  </diagram>
  <diagram name="PÃ¡gina-9" id="2ZP_KCen-d9YYmc_8a0g">
    <mxGraphModel dx="833" dy="463" grid="1" gridSize="10" guides="1" tooltips="1" connect="1" arrows="1" fold="1" page="1" pageScale="1" pageWidth="827" pageHeight="1169" math="0" shadow="0">
      <root>
        <mxCell id="NagLPqWOe5wkuOzbWI-r-0" />
        <mxCell id="NagLPqWOe5wkuOzbWI-r-1" parent="NagLPqWOe5wkuOzbWI-r-0" />
        <mxCell id="NagLPqWOe5wkuOzbWI-r-3" style="edgeStyle=orthogonalEdgeStyle;rounded=0;orthogonalLoop=1;jettySize=auto;html=1;entryX=0.5;entryY=0;entryDx=0;entryDy=0;" edge="1" parent="NagLPqWOe5wkuOzbWI-r-1" source="NagLPqWOe5wkuOzbWI-r-5" target="NagLPqWOe5wkuOzbWI-r-8">
          <mxGeometry relative="1" as="geometry" />
        </mxCell>
        <mxCell id="NagLPqWOe5wkuOzbWI-r-4" style="edgeStyle=orthogonalEdgeStyle;rounded=0;orthogonalLoop=1;jettySize=auto;html=1;entryX=0.5;entryY=0;entryDx=0;entryDy=0;" edge="1" parent="NagLPqWOe5wkuOzbWI-r-1" source="NagLPqWOe5wkuOzbWI-r-5" target="NagLPqWOe5wkuOzbWI-r-10">
          <mxGeometry relative="1" as="geometry" />
        </mxCell>
        <mxCell id="NagLPqWOe5wkuOzbWI-r-5" value="9" style="ellipse;whiteSpace=wrap;html=1;aspect=fixed;fillColor=#dae8fc;strokeColor=#6c8ebf;" vertex="1" parent="NagLPqWOe5wkuOzbWI-r-1">
          <mxGeometry x="380" y="50" width="50" height="50" as="geometry" />
        </mxCell>
        <mxCell id="NagLPqWOe5wkuOzbWI-r-6" style="edgeStyle=orthogonalEdgeStyle;rounded=0;orthogonalLoop=1;jettySize=auto;html=1;entryX=0.5;entryY=0;entryDx=0;entryDy=0;" edge="1" parent="NagLPqWOe5wkuOzbWI-r-1" source="NagLPqWOe5wkuOzbWI-r-8" target="NagLPqWOe5wkuOzbWI-r-12">
          <mxGeometry relative="1" as="geometry" />
        </mxCell>
        <mxCell id="NagLPqWOe5wkuOzbWI-r-7" style="edgeStyle=orthogonalEdgeStyle;rounded=0;orthogonalLoop=1;jettySize=auto;html=1;" edge="1" parent="NagLPqWOe5wkuOzbWI-r-1" source="NagLPqWOe5wkuOzbWI-r-8" target="NagLPqWOe5wkuOzbWI-r-15">
          <mxGeometry relative="1" as="geometry" />
        </mxCell>
        <mxCell id="NagLPqWOe5wkuOzbWI-r-8" value="37" style="ellipse;whiteSpace=wrap;html=1;aspect=fixed;" vertex="1" parent="NagLPqWOe5wkuOzbWI-r-1">
          <mxGeometry x="340" y="130" width="50" height="50" as="geometry" />
        </mxCell>
        <mxCell id="NagLPqWOe5wkuOzbWI-r-9" style="edgeStyle=orthogonalEdgeStyle;rounded=0;orthogonalLoop=1;jettySize=auto;html=1;entryX=0.5;entryY=0;entryDx=0;entryDy=0;" edge="1" parent="NagLPqWOe5wkuOzbWI-r-1" source="NagLPqWOe5wkuOzbWI-r-10" target="NagLPqWOe5wkuOzbWI-r-18">
          <mxGeometry relative="1" as="geometry" />
        </mxCell>
        <mxCell id="NagLPqWOe5wkuOzbWI-r-10" value="25" style="ellipse;whiteSpace=wrap;html=1;aspect=fixed;fillColor=#dae8fc;strokeColor=#6c8ebf;" vertex="1" parent="NagLPqWOe5wkuOzbWI-r-1">
          <mxGeometry x="420" y="130" width="50" height="50" as="geometry" />
        </mxCell>
        <mxCell id="NagLPqWOe5wkuOzbWI-r-11" style="edgeStyle=orthogonalEdgeStyle;rounded=0;orthogonalLoop=1;jettySize=auto;html=1;" edge="1" parent="NagLPqWOe5wkuOzbWI-r-1" source="NagLPqWOe5wkuOzbWI-r-12" target="NagLPqWOe5wkuOzbWI-r-20">
          <mxGeometry relative="1" as="geometry" />
        </mxCell>
        <mxCell id="NagLPqWOe5wkuOzbWI-r-12" value="103" style="ellipse;whiteSpace=wrap;html=1;aspect=fixed;" vertex="1" parent="NagLPqWOe5wkuOzbWI-r-1">
          <mxGeometry x="135" y="190" width="50" height="50" as="geometry" />
        </mxCell>
        <mxCell id="NagLPqWOe5wkuOzbWI-r-13" style="edgeStyle=orthogonalEdgeStyle;rounded=0;orthogonalLoop=1;jettySize=auto;html=1;" edge="1" parent="NagLPqWOe5wkuOzbWI-r-1" source="NagLPqWOe5wkuOzbWI-r-15" target="NagLPqWOe5wkuOzbWI-r-21">
          <mxGeometry relative="1" as="geometry" />
        </mxCell>
        <mxCell id="NagLPqWOe5wkuOzbWI-r-14" style="edgeStyle=orthogonalEdgeStyle;rounded=0;orthogonalLoop=1;jettySize=auto;html=1;entryX=0.5;entryY=0;entryDx=0;entryDy=0;" edge="1" parent="NagLPqWOe5wkuOzbWI-r-1" source="NagLPqWOe5wkuOzbWI-r-15" target="NagLPqWOe5wkuOzbWI-r-22">
          <mxGeometry relative="1" as="geometry" />
        </mxCell>
        <mxCell id="NagLPqWOe5wkuOzbWI-r-15" value="53" style="ellipse;whiteSpace=wrap;html=1;aspect=fixed;" vertex="1" parent="NagLPqWOe5wkuOzbWI-r-1">
          <mxGeometry x="260" y="190" width="50" height="50" as="geometry" />
        </mxCell>
        <mxCell id="NagLPqWOe5wkuOzbWI-r-16" style="edgeStyle=orthogonalEdgeStyle;rounded=0;orthogonalLoop=1;jettySize=auto;html=1;" edge="1" parent="NagLPqWOe5wkuOzbWI-r-1" source="NagLPqWOe5wkuOzbWI-r-17" target="NagLPqWOe5wkuOzbWI-r-23">
          <mxGeometry relative="1" as="geometry" />
        </mxCell>
        <mxCell id="NagLPqWOe5wkuOzbWI-r-17" value="123" style="ellipse;whiteSpace=wrap;html=1;aspect=fixed;fillColor=#dae8fc;strokeColor=#6c8ebf;" vertex="1" parent="NagLPqWOe5wkuOzbWI-r-1">
          <mxGeometry x="490" y="190" width="50" height="50" as="geometry" />
        </mxCell>
        <mxCell id="NagLPqWOe5wkuOzbWI-r-18" value="66" style="ellipse;whiteSpace=wrap;html=1;aspect=fixed;" vertex="1" parent="NagLPqWOe5wkuOzbWI-r-1">
          <mxGeometry x="570" y="190" width="50" height="50" as="geometry" />
        </mxCell>
        <mxCell id="NagLPqWOe5wkuOzbWI-r-19" value="133" style="ellipse;whiteSpace=wrap;html=1;aspect=fixed;" vertex="1" parent="NagLPqWOe5wkuOzbWI-r-1">
          <mxGeometry x="100" y="260" width="50" height="50" as="geometry" />
        </mxCell>
        <mxCell id="NagLPqWOe5wkuOzbWI-r-20" value="111" style="ellipse;whiteSpace=wrap;html=1;aspect=fixed;" vertex="1" parent="NagLPqWOe5wkuOzbWI-r-1">
          <mxGeometry x="170" y="260" width="50" height="50" as="geometry" />
        </mxCell>
        <mxCell id="NagLPqWOe5wkuOzbWI-r-21" value="59" style="ellipse;whiteSpace=wrap;html=1;aspect=fixed;" vertex="1" parent="NagLPqWOe5wkuOzbWI-r-1">
          <mxGeometry x="230" y="260" width="50" height="50" as="geometry" />
        </mxCell>
        <mxCell id="NagLPqWOe5wkuOzbWI-r-22" value="83" style="ellipse;whiteSpace=wrap;html=1;aspect=fixed;" vertex="1" parent="NagLPqWOe5wkuOzbWI-r-1">
          <mxGeometry x="290" y="260" width="50" height="50" as="geometry" />
        </mxCell>
        <mxCell id="NagLPqWOe5wkuOzbWI-r-23" value="42" style="ellipse;whiteSpace=wrap;html=1;aspect=fixed;" vertex="1" parent="NagLPqWOe5wkuOzbWI-r-1">
          <mxGeometry x="430" y="260" width="50" height="50" as="geometry" />
        </mxCell>
        <mxCell id="NagLPqWOe5wkuOzbWI-r-24" style="edgeStyle=orthogonalEdgeStyle;rounded=0;orthogonalLoop=1;jettySize=auto;html=1;entryX=0.38;entryY=0.1;entryDx=0;entryDy=0;entryPerimeter=0;" edge="1" parent="NagLPqWOe5wkuOzbWI-r-1" source="NagLPqWOe5wkuOzbWI-r-12" target="NagLPqWOe5wkuOzbWI-r-19">
          <mxGeometry relative="1" as="geometry" />
        </mxCell>
        <mxCell id="NagLPqWOe5wkuOzbWI-r-25" style="edgeStyle=orthogonalEdgeStyle;rounded=0;orthogonalLoop=1;jettySize=auto;html=1;entryX=0.64;entryY=-0.04;entryDx=0;entryDy=0;entryPerimeter=0;" edge="1" parent="NagLPqWOe5wkuOzbWI-r-1" source="NagLPqWOe5wkuOzbWI-r-10" target="NagLPqWOe5wkuOzbWI-r-17">
          <mxGeometry relative="1" as="geometry" />
        </mxCell>
      </root>
    </mxGraphModel>
  </diagram>
  <diagram name="PÃ¡gina-10" id="wRC7w_JVArTs4GcUuaJ3">
    <mxGraphModel dx="833" dy="463" grid="1" gridSize="10" guides="1" tooltips="1" connect="1" arrows="1" fold="1" page="1" pageScale="1" pageWidth="827" pageHeight="1169" math="0" shadow="0">
      <root>
        <mxCell id="ost8YEzbRkVtfklilsjd-0" />
        <mxCell id="ost8YEzbRkVtfklilsjd-1" parent="ost8YEzbRkVtfklilsjd-0" />
        <mxCell id="ost8YEzbRkVtfklilsjd-2" value="&lt;div style=&quot;text-align: left;&quot;&gt;&lt;font face=&quot;-apple-system, BlinkMacSystemFont, Segoe UI, Roboto, Helvetica Neue, Arial, Noto Sans, Liberation Sans, sans-serif, Apple Color Emoji, Segoe UI Emoji, Segoe UI Symbol, Noto Color Emoji&quot; color=&quot;#333333&quot;&gt;&lt;span style=&quot;font-size: 14.44px; background-color: rgb(255, 255, 255);&quot;&gt;9, 37, 25, 103, 53, 42, 66, 133, 111, 59, 83, 123&lt;/span&gt;&lt;/font&gt;&lt;/div&gt;" style="whiteSpace=wrap;html=1;" vertex="1" parent="ost8YEzbRkVtfklilsjd-1">
          <mxGeometry y="10" width="320" height="30" as="geometry" />
        </mxCell>
        <mxCell id="ost8YEzbRkVtfklilsjd-3" style="edgeStyle=orthogonalEdgeStyle;rounded=0;orthogonalLoop=1;jettySize=auto;html=1;entryX=0.5;entryY=0;entryDx=0;entryDy=0;" edge="1" parent="ost8YEzbRkVtfklilsjd-1" source="ost8YEzbRkVtfklilsjd-5" target="ost8YEzbRkVtfklilsjd-8">
          <mxGeometry relative="1" as="geometry" />
        </mxCell>
        <mxCell id="ost8YEzbRkVtfklilsjd-4" style="edgeStyle=orthogonalEdgeStyle;rounded=0;orthogonalLoop=1;jettySize=auto;html=1;entryX=0.5;entryY=0;entryDx=0;entryDy=0;" edge="1" parent="ost8YEzbRkVtfklilsjd-1" source="ost8YEzbRkVtfklilsjd-5" target="ost8YEzbRkVtfklilsjd-10">
          <mxGeometry relative="1" as="geometry" />
        </mxCell>
        <mxCell id="ost8YEzbRkVtfklilsjd-5" value="9" style="ellipse;whiteSpace=wrap;html=1;aspect=fixed;fillColor=#dae8fc;strokeColor=#6c8ebf;" vertex="1" parent="ost8YEzbRkVtfklilsjd-1">
          <mxGeometry x="380" y="50" width="50" height="50" as="geometry" />
        </mxCell>
        <mxCell id="ost8YEzbRkVtfklilsjd-6" style="edgeStyle=orthogonalEdgeStyle;rounded=0;orthogonalLoop=1;jettySize=auto;html=1;entryX=0.5;entryY=0;entryDx=0;entryDy=0;" edge="1" parent="ost8YEzbRkVtfklilsjd-1" source="ost8YEzbRkVtfklilsjd-8" target="ost8YEzbRkVtfklilsjd-12">
          <mxGeometry relative="1" as="geometry" />
        </mxCell>
        <mxCell id="ost8YEzbRkVtfklilsjd-7" style="edgeStyle=orthogonalEdgeStyle;rounded=0;orthogonalLoop=1;jettySize=auto;html=1;" edge="1" parent="ost8YEzbRkVtfklilsjd-1" source="ost8YEzbRkVtfklilsjd-8" target="ost8YEzbRkVtfklilsjd-15">
          <mxGeometry relative="1" as="geometry" />
        </mxCell>
        <mxCell id="ost8YEzbRkVtfklilsjd-8" value="37" style="ellipse;whiteSpace=wrap;html=1;aspect=fixed;" vertex="1" parent="ost8YEzbRkVtfklilsjd-1">
          <mxGeometry x="340" y="130" width="50" height="50" as="geometry" />
        </mxCell>
        <mxCell id="ost8YEzbRkVtfklilsjd-9" style="edgeStyle=orthogonalEdgeStyle;rounded=0;orthogonalLoop=1;jettySize=auto;html=1;entryX=0.5;entryY=0;entryDx=0;entryDy=0;" edge="1" parent="ost8YEzbRkVtfklilsjd-1" source="ost8YEzbRkVtfklilsjd-10" target="ost8YEzbRkVtfklilsjd-18">
          <mxGeometry relative="1" as="geometry" />
        </mxCell>
        <mxCell id="ost8YEzbRkVtfklilsjd-10" value="25" style="ellipse;whiteSpace=wrap;html=1;aspect=fixed;fillColor=#dae8fc;strokeColor=#6c8ebf;" vertex="1" parent="ost8YEzbRkVtfklilsjd-1">
          <mxGeometry x="420" y="130" width="50" height="50" as="geometry" />
        </mxCell>
        <mxCell id="ost8YEzbRkVtfklilsjd-11" style="edgeStyle=orthogonalEdgeStyle;rounded=0;orthogonalLoop=1;jettySize=auto;html=1;" edge="1" parent="ost8YEzbRkVtfklilsjd-1" source="ost8YEzbRkVtfklilsjd-12" target="ost8YEzbRkVtfklilsjd-20">
          <mxGeometry relative="1" as="geometry" />
        </mxCell>
        <mxCell id="ost8YEzbRkVtfklilsjd-12" value="103" style="ellipse;whiteSpace=wrap;html=1;aspect=fixed;" vertex="1" parent="ost8YEzbRkVtfklilsjd-1">
          <mxGeometry x="135" y="190" width="50" height="50" as="geometry" />
        </mxCell>
        <mxCell id="ost8YEzbRkVtfklilsjd-13" style="edgeStyle=orthogonalEdgeStyle;rounded=0;orthogonalLoop=1;jettySize=auto;html=1;" edge="1" parent="ost8YEzbRkVtfklilsjd-1" source="ost8YEzbRkVtfklilsjd-15" target="ost8YEzbRkVtfklilsjd-21">
          <mxGeometry relative="1" as="geometry" />
        </mxCell>
        <mxCell id="ost8YEzbRkVtfklilsjd-14" style="edgeStyle=orthogonalEdgeStyle;rounded=0;orthogonalLoop=1;jettySize=auto;html=1;entryX=0.5;entryY=0;entryDx=0;entryDy=0;" edge="1" parent="ost8YEzbRkVtfklilsjd-1" source="ost8YEzbRkVtfklilsjd-15" target="ost8YEzbRkVtfklilsjd-22">
          <mxGeometry relative="1" as="geometry" />
        </mxCell>
        <mxCell id="ost8YEzbRkVtfklilsjd-15" value="53" style="ellipse;whiteSpace=wrap;html=1;aspect=fixed;" vertex="1" parent="ost8YEzbRkVtfklilsjd-1">
          <mxGeometry x="260" y="190" width="50" height="50" as="geometry" />
        </mxCell>
        <mxCell id="ost8YEzbRkVtfklilsjd-16" style="edgeStyle=orthogonalEdgeStyle;rounded=0;orthogonalLoop=1;jettySize=auto;html=1;" edge="1" parent="ost8YEzbRkVtfklilsjd-1" source="ost8YEzbRkVtfklilsjd-17" target="ost8YEzbRkVtfklilsjd-23">
          <mxGeometry relative="1" as="geometry" />
        </mxCell>
        <mxCell id="ost8YEzbRkVtfklilsjd-17" value="42" style="ellipse;whiteSpace=wrap;html=1;aspect=fixed;fillColor=#dae8fc;strokeColor=#6c8ebf;" vertex="1" parent="ost8YEzbRkVtfklilsjd-1">
          <mxGeometry x="490" y="190" width="50" height="50" as="geometry" />
        </mxCell>
        <mxCell id="ost8YEzbRkVtfklilsjd-18" value="66" style="ellipse;whiteSpace=wrap;html=1;aspect=fixed;" vertex="1" parent="ost8YEzbRkVtfklilsjd-1">
          <mxGeometry x="570" y="190" width="50" height="50" as="geometry" />
        </mxCell>
        <mxCell id="ost8YEzbRkVtfklilsjd-19" value="133" style="ellipse;whiteSpace=wrap;html=1;aspect=fixed;" vertex="1" parent="ost8YEzbRkVtfklilsjd-1">
          <mxGeometry x="100" y="260" width="50" height="50" as="geometry" />
        </mxCell>
        <mxCell id="ost8YEzbRkVtfklilsjd-20" value="111" style="ellipse;whiteSpace=wrap;html=1;aspect=fixed;" vertex="1" parent="ost8YEzbRkVtfklilsjd-1">
          <mxGeometry x="170" y="260" width="50" height="50" as="geometry" />
        </mxCell>
        <mxCell id="ost8YEzbRkVtfklilsjd-21" value="59" style="ellipse;whiteSpace=wrap;html=1;aspect=fixed;" vertex="1" parent="ost8YEzbRkVtfklilsjd-1">
          <mxGeometry x="230" y="260" width="50" height="50" as="geometry" />
        </mxCell>
        <mxCell id="ost8YEzbRkVtfklilsjd-22" value="83" style="ellipse;whiteSpace=wrap;html=1;aspect=fixed;" vertex="1" parent="ost8YEzbRkVtfklilsjd-1">
          <mxGeometry x="290" y="260" width="50" height="50" as="geometry" />
        </mxCell>
        <mxCell id="ost8YEzbRkVtfklilsjd-23" value="123" style="ellipse;whiteSpace=wrap;html=1;aspect=fixed;fillColor=#dae8fc;strokeColor=#6c8ebf;" vertex="1" parent="ost8YEzbRkVtfklilsjd-1">
          <mxGeometry x="430" y="260" width="50" height="50" as="geometry" />
        </mxCell>
        <mxCell id="ost8YEzbRkVtfklilsjd-24" style="edgeStyle=orthogonalEdgeStyle;rounded=0;orthogonalLoop=1;jettySize=auto;html=1;entryX=0.38;entryY=0.1;entryDx=0;entryDy=0;entryPerimeter=0;" edge="1" parent="ost8YEzbRkVtfklilsjd-1" source="ost8YEzbRkVtfklilsjd-12" target="ost8YEzbRkVtfklilsjd-19">
          <mxGeometry relative="1" as="geometry" />
        </mxCell>
        <mxCell id="ost8YEzbRkVtfklilsjd-25" style="edgeStyle=orthogonalEdgeStyle;rounded=0;orthogonalLoop=1;jettySize=auto;html=1;entryX=0.64;entryY=-0.04;entryDx=0;entryDy=0;entryPerimeter=0;" edge="1" parent="ost8YEzbRkVtfklilsjd-1" source="ost8YEzbRkVtfklilsjd-10" target="ost8YEzbRkVtfklilsjd-17">
          <mxGeometry relative="1" as="geometry" />
        </mxCell>
      </root>
    </mxGraphModel>
  </diagram>
</mxfile>
